<svg width="19" height="14" viewBox="0 0 13 12" fill="none" xmlns="http://www.w3.org/2000/svg">
<path d="M8.00156 9.17202L7.16227 9.95252V6.59633C7.16227 6.4371 7.09372 6.28439 6.97171 6.17179C6.84969 6.0592 6.68421 5.99594 6.51165 5.99594C6.3391 5.99594 6.17361 6.0592 6.0516 6.17179C5.92958 6.28439 5.86104 6.4371 5.86104 6.59633V9.95252L5.02174 9.17202C4.96108 9.11604 4.88906 9.07163 4.8098 9.04133C4.73054 9.01104 4.64559 8.99544 4.5598 8.99544C4.47401 8.99544 4.38906 9.01104 4.3098 9.04133C4.23054 9.07163 4.15853 9.11604 4.09787 9.17202C4.0372 9.22799 3.98908 9.29445 3.95625 9.36759C3.92342 9.44073 3.90652 9.51912 3.90652 9.59829C3.90652 9.67746 3.92342 9.75585 3.95625 9.82899C3.98908 9.90213 4.0372 9.96859 4.09787 10.0246L6.04972 11.8257C6.11159 11.8804 6.18455 11.9233 6.26442 11.9518C6.3423 11.9836 6.42651 12 6.51165 12C6.5968 12 6.68101 11.9836 6.75889 11.9518C6.83875 11.9233 6.91171 11.8804 6.97359 11.8257L8.92544 10.0246C9.04795 9.91151 9.11678 9.75818 9.11678 9.59829C9.11678 9.43841 9.04795 9.28507 8.92544 9.17202C8.80293 9.05896 8.63676 8.99544 8.4635 8.99544C8.29024 8.99544 8.12408 9.05896 8.00156 9.17202ZM10.6886 2.52568C10.2911 1.68273 9.605 0.983315 8.73551 0.534612C7.86601 0.0859089 6.86107 -0.0873308 5.87468 0.0414395C4.88828 0.17021 3.97485 0.593886 3.27435 1.24755C2.57385 1.90121 2.12493 2.74879 1.99637 3.66042C1.37607 3.7975 0.831915 4.14003 0.467255 4.62296C0.102595 5.10589 -0.0571766 5.69558 0.0182816 6.28006C0.0937398 6.86453 0.399173 7.40308 0.876577 7.79343C1.35398 8.18378 1.97011 8.39875 2.60795 8.39751C2.78051 8.39751 2.94599 8.33425 3.06801 8.22166C3.19002 8.10906 3.25857 7.95635 3.25857 7.79712C3.25857 7.63788 3.19002 7.48517 3.06801 7.37258C2.94599 7.25998 2.78051 7.19672 2.60795 7.19672C2.26285 7.19672 1.93187 7.07021 1.68784 6.84502C1.44381 6.61983 1.30672 6.31441 1.30672 5.99594C1.30672 5.67747 1.44381 5.37205 1.68784 5.14686C1.93187 4.92167 2.26285 4.79516 2.60795 4.79516C2.78051 4.79516 2.94599 4.7319 3.06801 4.61931C3.19002 4.50671 3.25857 4.354 3.25857 4.19477C3.26023 3.48467 3.53462 2.79811 4.03298 2.25705C4.53134 1.716 5.22141 1.35548 5.98059 1.23956C6.73976 1.12364 7.51889 1.25981 8.17955 1.62389C8.84021 1.98797 9.33963 2.55638 9.58907 3.22813C9.62626 3.33131 9.69311 3.42322 9.78249 3.49407C9.87187 3.56491 9.98042 3.61203 10.0965 3.6304C10.5299 3.70597 10.9227 3.91474 11.2111 4.2227C11.4994 4.53066 11.6662 4.91965 11.6843 5.32629C11.7024 5.73292 11.5708 6.13323 11.3108 6.46198C11.0508 6.79074 10.6779 7.02856 10.2527 7.13669C10.1698 7.1564 10.092 7.19098 10.0236 7.23846C9.95517 7.28593 9.89758 7.34538 9.85408 7.4134C9.81059 7.48141 9.78203 7.55667 9.77005 7.63487C9.75807 7.71307 9.76289 7.79268 9.78425 7.86916C9.80561 7.94564 9.84309 8.01749 9.89454 8.08061C9.94599 8.14372 10.0104 8.19687 10.0841 8.23701C10.1578 8.27715 10.2394 8.3035 10.3241 8.31455C10.4089 8.32561 10.4951 8.32116 10.578 8.30145C11.2627 8.13448 11.8697 7.76589 12.3067 7.25164C12.7437 6.73739 12.987 6.10558 12.9995 5.45215C13.012 4.79872 12.7931 4.15937 12.376 3.63119C11.959 3.10301 11.3665 2.71486 10.6886 2.52568Z" fill="white"/>
</svg>
