<svg width="109" height="71" viewBox="0 0 109 71" fill="none" xmlns="http://www.w3.org/2000/svg">
<path d="M85.2689 25.6715C85.2667 25.1832 85.0581 24.7181 84.6936 24.3939C84.3272 24.0695 83.8375 23.9181 83.3558 23.9742L25.1954 30.8223C24.3345 30.9235 23.6841 31.6549 23.6841 32.5226V47.9305C23.6841 54.6873 43.0542 56.4908 54.4997 56.4908C65.9447 56.4908 85.3154 54.6873 85.3154 47.9305C85.3154 47.9305 85.3154 47.9279 85.3154 47.9271L85.2689 25.6715Z" fill="#0B4870"/>
<path d="M105.528 16.2187L61.7175 1.19746C57.0628 -0.399153 51.9369 -0.399153 47.2822 1.19746L3.47264 16.2187C1.3648 16.9408 0 18.8475 0 21.0772C0 23.3057 1.36452 25.2126 3.47264 25.9347L47.2825 40.9554C49.61 41.7535 52.0536 42.1528 54.5001 42.1528C56.9461 42.1528 59.3906 41.754 61.7175 40.9554L105.529 25.9347C107.637 25.2126 109 23.306 109 21.0772C108.999 18.8475 107.637 16.9408 105.528 16.2187Z" fill="#0E538C"/>
<path d="M86.9808 58.2025C86.0346 58.2025 85.2691 57.4359 85.2691 56.4906V34.121C85.2691 33.3893 84.8041 32.7381 84.1123 32.5009L53.898 22.1422C53.0039 21.8353 52.527 20.8621 52.8328 19.9674C53.1405 19.0731 54.112 18.5944 55.008 18.9036L85.2221 29.2629C87.2985 29.9747 88.693 31.9264 88.693 34.1213V56.4908C88.693 57.4359 87.9273 58.2025 86.9808 58.2025Z" fill="#2A94F4"/>
<path d="M88.693 70.1867H85.2691C84.3231 70.1867 83.5571 69.4202 83.5571 68.4745V58.2025C83.5571 56.3114 85.0897 54.7783 86.9807 54.7783C88.8724 54.7783 90.4046 56.3114 90.4046 58.2025V68.4745C90.4046 69.4202 89.6384 70.1867 88.693 70.1867Z" fill="#FFBE55"/>
<path d="M85.269 44.1427C85.2809 44.1353 85.2957 44.1285 85.3076 44.1211L85.2977 39.4353C85.2957 39.4619 85.2736 39.4923 85.269 39.5186V44.1427Z" fill="#5C546A"/>
<path d="M54.4999 23.9627C58.2818 23.9627 61.3477 22.4297 61.3477 20.5388C61.3477 18.6478 58.2818 17.1149 54.4999 17.1149C50.718 17.1149 47.6521 18.6478 47.6521 20.5388C47.6521 22.4297 50.718 23.9627 54.4999 23.9627Z" fill="#D3D3D3"/>
</svg>
