<svg width="70" height="70" viewBox="0 0 70 70" fill="none" xmlns="http://www.w3.org/2000/svg">
<path d="M35 37.1875C37.4162 37.1875 39.375 35.2287 39.375 32.8125C39.375 30.3963 37.4162 28.4375 35 28.4375C32.5838 28.4375 30.625 30.3963 30.625 32.8125C30.625 35.2287 32.5838 37.1875 35 37.1875Z" fill="#F93A3A"/>
<path d="M26.25 54.6875H43.75V42.187C43.7497 40.8612 43.2229 39.5897 42.2854 38.6521C41.3478 37.7146 40.0763 37.1878 38.7505 37.1875H35L37.5003 44.6873L35 48.125L32.4997 44.6873L35 37.1875H31.2495C29.9237 37.1878 28.6522 37.7146 27.7146 38.6521C26.7771 39.5897 26.2503 40.8612 26.25 42.187V54.6875Z" fill="#F93A3A"/>
<path d="M37.3658 15.0128L35 10.2189L32.6342 15.0128L27.3438 15.7806L31.1719 19.5125L30.2684 24.7811L35 22.2939L39.7316 24.7811L38.8281 19.5125L42.6562 15.7806L37.3658 15.0128Z" fill="#F93A3A"/>
<path d="M49.3348 26.3714L51.5748 29.0981L52.3765 25.6615L55.6621 24.3742L52.6412 22.5498L52.4312 19.0269L49.7624 21.3358L46.3477 20.4465L47.7193 23.6983L45.8184 26.6711L49.3348 26.3714Z" fill="#F93A3A"/>
<path d="M20.2376 21.3358L17.5688 19.0269L17.3588 22.5498L14.3379 24.3742L17.6235 25.6615L18.4252 29.0981L20.6652 26.3714L24.1816 26.6711L22.2807 23.6983L23.6523 20.4465L20.2376 21.3358Z" fill="#F93A3A"/>
<path d="M35 1.09375C29.7998 1.09468 24.6694 2.29175 20.0058 4.59238C15.3421 6.893 11.2701 10.2355 8.10476 14.3614C4.93939 18.4873 2.76547 23.286 1.75113 28.3864C0.736783 33.4867 0.909207 38.7521 2.25506 43.7751C3.60091 48.7982 6.08413 53.4444 9.51264 57.3544C12.9412 61.2643 17.2231 64.3333 22.0273 66.3239C26.8315 68.3144 32.0291 69.1733 37.2183 68.834C42.4075 68.4947 47.4491 66.9664 51.9531 64.3672L50.8594 62.4728C44.0564 66.4142 36.0345 67.696 28.342 66.0709C20.6495 64.4457 13.8316 60.0288 9.20409 53.6726C4.57657 47.3163 2.46746 39.4713 3.28378 31.6515C4.10011 23.8317 7.78401 16.5914 13.6245 11.3279C19.4651 6.06447 27.0482 3.15092 34.9105 3.14957C42.7728 3.14822 50.3569 6.05917 56.1993 11.3206C62.0416 16.5821 65.728 23.8211 66.547 31.6406C67.366 39.4602 65.2596 47.3059 60.6342 53.6637L56.7416 50.4219L55.1852 61.8341L66.1227 58.2334L62.3208 55.0692C66.0332 50.0186 68.2726 44.0376 68.7901 37.7907C69.3075 31.5439 68.0828 25.2759 65.252 19.6833C62.4212 14.0907 58.0951 9.39252 52.7546 6.11081C47.4141 2.82911 41.2682 1.09243 35 1.09375Z" fill="#F93A3A"/>
</svg>
