<svg width="70" height="70" viewBox="0 0 70 70" fill="none" xmlns="http://www.w3.org/2000/svg">
<path d="M35 70.0001C54.33 70.0001 70 54.3301 70 35.0001C70 15.6701 54.33 0 35 0C15.67 0 0 15.6701 0 35.0001C0 54.3301 15.67 70.0001 35 70.0001Z" fill="#EF4C45"/>
<path d="M45.4015 11.4245C45.3611 11.4288 45.3211 11.4364 45.2819 11.4473L42.3738 12.2277C42.1872 12.2784 42.0284 12.4009 41.932 12.5685C41.8357 12.736 41.8098 12.935 41.8599 13.1217C41.9101 13.3083 42.0322 13.4675 42.1996 13.5642C42.3669 13.6609 42.5658 13.6874 42.7526 13.6377L43.9403 13.3186C38.8259 21.7611 27.2354 31.9793 15.6082 34.285C15.5141 34.3037 15.4247 34.3408 15.3449 34.3941C15.2652 34.4473 15.1967 34.5158 15.1434 34.5956C15.0901 34.6753 15.053 34.7648 15.0343 34.8588C15.0156 34.9529 15.0156 35.0497 15.0343 35.1438C15.053 35.2379 15.09 35.3273 15.1433 35.4071C15.1966 35.4869 15.2651 35.5553 15.3448 35.6086C15.5058 35.7163 15.7031 35.7555 15.893 35.7177C28.1565 33.2857 39.8865 22.8725 45.2164 14.025L45.5411 15.2413C45.5658 15.3338 45.6084 15.4207 45.6667 15.4968C45.7249 15.5728 45.7975 15.6367 45.8805 15.6847C45.9634 15.7328 46.055 15.764 46.1499 15.7766C46.2449 15.7892 46.3415 15.783 46.434 15.7583C46.5266 15.7336 46.6134 15.6909 46.6895 15.6327C46.7656 15.5745 46.8295 15.5018 46.8775 15.4189C46.9255 15.3359 46.9567 15.2444 46.9693 15.1494C46.9819 15.0544 46.9757 14.9579 46.951 14.8653L46.1734 11.9629C46.1318 11.8093 46.041 11.6735 45.915 11.5763C45.789 11.4791 45.6347 11.4258 45.4756 11.4245C45.4509 11.4233 45.4262 11.4233 45.4015 11.4245H45.4015ZM43.0887 21.7525C42.686 21.7525 42.3596 22.079 42.3595 22.4817V35.7804C42.8286 35.5815 43.3104 35.4058 43.8179 35.2819V33.4192V23.2108H46.7345V31.9608C47.1213 31.9609 47.4922 32.1145 47.7657 32.388C48.0392 32.6615 48.1928 33.0324 48.1929 33.4192V22.4817C48.1928 22.079 47.8664 21.7525 47.4637 21.7525H43.0887ZM34.3387 30.4968V30.5025C33.936 30.5025 33.6096 30.829 33.6095 31.2316V43.6275C33.6097 43.4816 33.6318 43.3367 33.675 43.1974C33.704 43.1046 33.7422 43.0149 33.789 42.9296C33.9143 42.6998 34.0991 42.5079 34.3241 42.374C34.5492 42.2402 34.8061 42.1695 35.0679 42.1691V31.9665H37.9845V39.6C38.3919 38.9109 38.879 38.2775 39.4429 37.7201V31.2402C39.4428 30.8375 39.1164 30.511 38.7137 30.511L34.3387 30.4967L34.3387 30.4968ZM45.2762 33.4192V36.37C41.4362 36.719 38.3693 39.7872 38.0215 43.6275H35.0679V45.0858H38.0215C38.3705 48.9251 41.437 51.9916 45.2762 52.3405V55.2942H46.7345V52.3405C50.5737 51.9916 53.6403 48.9251 53.9892 45.0858H56.9429V43.6275H53.9892C53.6414 39.7872 50.5746 36.719 46.7345 36.37V33.4192H45.2762ZM25.5887 36.4583C25.3953 36.4583 25.2099 36.5351 25.0731 36.6719C24.9364 36.8086 24.8595 36.9941 24.8595 37.1875V54.6875C24.8595 54.8808 24.9364 55.0663 25.0731 55.203C25.2099 55.3398 25.3953 55.4166 25.5887 55.4166H29.9637C30.1571 55.4166 30.3425 55.3398 30.4793 55.203C30.616 55.0663 30.6928 54.8808 30.6929 54.6875V37.1875C30.6928 36.9941 30.616 36.8086 30.4793 36.6719C30.3425 36.5351 30.1571 36.4583 29.9637 36.4583H25.5887ZM45.2762 37.8654V39.3265C43.0519 39.6505 41.2982 41.4029 40.9752 43.6275H39.5169C39.8549 40.5864 42.2353 38.204 45.2762 37.8654ZM46.7345 37.8654C49.7755 38.204 52.1558 40.5864 52.4938 43.6275H51.0355C50.7125 41.4029 48.9588 39.6505 46.7345 39.3265V37.8654ZM26.3179 37.9166H29.2345V53.9583H26.3179V37.9166ZM16.8387 39.375C16.6453 39.375 16.4598 39.4518 16.3231 39.5886C16.1864 39.7253 16.1095 39.9107 16.1095 40.1041V54.6875C16.1095 54.8808 16.1864 55.0663 16.3231 55.203C16.4598 55.3398 16.6453 55.4166 16.8387 55.4166H21.2137C21.4071 55.4166 21.5925 55.3398 21.7293 55.203C21.866 55.0663 21.9428 54.8808 21.9429 54.6875V40.1041C21.9428 39.9107 21.866 39.7253 21.7293 39.5886C21.5925 39.4518 21.4071 39.375 21.2137 39.375H16.8387ZM45.2676 40.782C45.2704 40.7815 45.2735 40.7826 45.2762 40.782V42.303C44.6612 42.5245 44.1761 43.0124 43.9546 43.6275H42.4336C42.7211 42.196 43.8374 41.0727 45.2677 40.782H45.2676ZM46.7345 40.782C48.1687 41.07 49.2891 42.1933 49.5771 43.6275H48.0561C47.8347 43.0124 47.3496 42.5245 46.7345 42.303V40.782ZM17.5679 40.8333H20.4845V53.9583H17.5679V40.8333ZM33.6095 45.0858V54.5593C33.6096 54.9619 33.936 55.2885 34.3387 55.2885L38.7137 55.2742C39.1164 55.2742 39.4428 54.9476 39.4429 54.545V50.9818C38.879 50.4238 38.3918 49.7915 37.9845 49.1019V53.8187H35.0679V46.5384C34.6821 46.5384 34.312 46.3855 34.0387 46.1132C33.7654 45.841 33.6111 45.4715 33.6095 45.0858V45.0858ZM39.5169 45.0858H40.9752C41.299 47.3096 43.0525 49.063 45.2762 49.3868V50.8451C42.2358 50.5065 39.8555 48.1262 39.5169 45.0858ZM42.4336 45.0858H43.9546C44.1765 45.6997 44.6619 46.1863 45.2762 46.4074V47.9284C43.8429 47.6406 42.7225 46.5188 42.4336 45.0858ZM48.0561 45.0858H49.5771C49.2883 46.5188 48.1678 47.6406 46.7345 47.9284V46.4074C47.3488 46.1863 47.8342 45.6997 48.0561 45.0858ZM51.0355 45.0858H52.4938C52.1552 48.1262 49.7749 50.5065 46.7345 50.8451V49.3868C48.9583 49.063 50.7118 47.3096 51.0355 45.0858ZM42.3595 52.9272V52.9301V54.5594C42.3596 54.962 42.686 55.2885 43.0887 55.2885H43.8179V53.8216V53.4257C43.3107 53.3018 42.8284 53.1262 42.3595 52.9273V52.9272Z" fill="white"/>
</svg>
