<svg width="45" height="51" viewBox="0 0 45 51" fill="none" xmlns="http://www.w3.org/2000/svg">
<path d="M43.1544 31.2452H37.956C37.2364 30.0976 36.1681 29.2098 34.9071 28.7117L25.2279 24.9047C24.9197 24.7848 24.6551 24.5745 24.4689 24.3015C24.2828 24.0285 24.1838 23.7056 24.1851 23.3753V21.7438C25.2924 20.7981 26.1884 19.6308 26.8153 18.3174C27.4422 17.0041 27.7859 15.5739 27.8242 14.1195C28.4699 14.035 29.063 13.7191 29.4929 13.2306C29.9228 12.7421 30.1603 12.1143 30.1612 11.464C30.1606 10.9052 29.9379 10.3695 29.5422 9.97437C29.1464 9.57924 28.6099 9.35697 28.0502 9.35632H27.8277V3.43652C27.8281 2.88838 27.6963 2.34819 27.4434 1.86164C27.4388 1.85104 27.4333 1.84103 27.4277 1.83091C27.135 1.27864 26.6972 0.816401 26.1613 0.493827C25.6254 0.171253 25.0116 0.000532715 24.3858 0H14.5346C13.622 0.0010282 12.7472 0.36342 12.1019 1.00767C11.4567 1.65192 11.0937 2.52542 11.0927 3.43652V9.35633H10.8702C10.3105 9.35695 9.77392 9.57921 9.37816 9.97434C8.9824 10.3695 8.75978 10.9052 8.75915 11.464C8.76004 12.1143 8.99754 12.7421 9.42746 13.2306C9.85738 13.7191 10.4504 14.035 11.0962 14.1195C11.1345 15.5739 11.4782 17.0041 12.105 18.3174C12.7319 19.6308 13.628 20.7981 14.7353 21.7438V23.3753C14.7366 23.7056 14.6376 24.0285 14.4515 24.3015C14.2653 24.5745 14.0007 24.7848 13.6925 24.9047L4.0133 28.7117C2.82719 29.1729 1.80885 29.982 1.09244 31.0325C0.37603 32.083 -0.00482855 33.3255 4.6217e-05 34.5964V50.6514C4.6217e-05 50.7438 0.0368344 50.8325 0.102318 50.8979C0.167801 50.9633 0.256616 51 0.349224 51C0.441831 51 0.530646 50.9633 0.596129 50.8979C0.661613 50.8325 0.698401 50.7438 0.698401 50.6514V45.5697H7.0514V50.6514C7.0514 50.7438 7.08819 50.8325 7.15368 50.8979C7.21916 50.9633 7.30797 51 7.40058 51C7.49319 51 7.582 50.9633 7.64749 50.8979C7.71297 50.8325 7.74976 50.7438 7.74976 50.6514V43.3626C7.74976 43.2701 7.71297 43.1814 7.64749 43.116C7.582 43.0507 7.49319 43.0139 7.40058 43.0139C7.30797 43.0139 7.21916 43.0507 7.15368 43.116C7.08819 43.1814 7.0514 43.2701 7.0514 43.3626V44.8725H0.698399V34.5964C0.694058 33.4656 1.03293 32.3601 1.67037 31.4254C2.3078 30.4908 3.21389 29.7708 4.26924 29.3605L13.1274 25.8764C13.7156 27.0504 14.6196 28.0377 15.7381 28.7277C16.8566 29.4177 18.1454 29.7832 19.4602 29.7832C20.775 29.7832 22.0638 29.4177 23.1823 28.7277C24.3008 28.0377 25.2048 27.0504 25.793 25.8764L34.6512 29.3605C35.631 29.7477 36.483 30.4005 37.1112 31.2452H27.0601C26.5708 31.2458 26.1016 31.4401 25.7556 31.7856C25.4096 32.1311 25.215 32.5994 25.2144 33.088V49.1572C25.215 49.6458 25.4096 50.1142 25.7556 50.4597C26.1016 50.8051 26.5708 50.9995 27.0601 51H43.1544C43.6437 50.9994 44.1128 50.8051 44.4588 50.4597C44.8048 50.1142 44.9994 49.6458 45 49.1572V33.088C44.9994 32.5995 44.8048 32.1311 44.4588 31.7856C44.1128 31.4401 43.6437 31.2458 43.1544 31.2452ZM27.8277 10.1104V10.0536H28.0502C28.4247 10.054 28.7838 10.2028 29.0486 10.4672C29.3134 10.7316 29.4624 11.0901 29.4629 11.464C29.4623 11.9289 29.2983 12.3788 28.9994 12.7353C28.7006 13.0917 28.2859 13.3322 27.8277 13.4146L27.8277 10.1104ZM11.0927 10.1104V13.4146C10.6345 13.3322 10.2198 13.0917 9.92093 12.7353C9.6221 12.3788 9.45808 11.9289 9.4575 11.464C9.45793 11.0901 9.60691 10.7316 9.87175 10.4672C10.1366 10.2027 10.4957 10.054 10.8702 10.0536H11.0927L11.0927 10.1104ZM27.0926 2.99169C27.1169 3.13872 27.1292 3.28749 27.1294 3.43652V9.45939C26.5649 9.04484 26.071 8.5423 25.6665 7.97104C25.255 7.38642 24.9438 6.73753 24.7456 6.05093C25.227 5.64365 25.6648 5.18756 26.0519 4.69001C26.4601 4.1637 26.8091 3.59417 27.0926 2.99169ZM21.206 11.3875C20.9283 11.3878 20.6621 11.4981 20.4657 11.6942C20.2693 11.8902 20.1588 12.1561 20.1585 12.4334V12.7321H18.7618V12.4334C18.7615 12.1561 18.651 11.8902 18.4546 11.6942C18.2583 11.4981 17.992 11.3878 17.7143 11.3875H14.3172L12.6952 10.4391C14.9904 10.3407 17.2544 9.87201 19.3996 9.05137C21.0858 8.40572 22.6831 7.54886 24.153 6.50136C24.3732 7.16783 24.6907 7.7982 25.0953 8.3721C25.5672 9.03896 26.1488 9.62116 26.8155 10.094L24.6031 11.3875H21.206ZM24.3486 12.0847V13.7283C24.3485 13.8207 24.3117 13.9093 24.2463 13.9747C24.1808 14.04 24.092 14.0768 23.9995 14.0769H21.206C21.1135 14.0768 21.0247 14.04 20.9593 13.9747C20.8938 13.9093 20.857 13.8207 20.8569 13.7283V12.4334C20.857 12.3409 20.8938 12.2523 20.9593 12.187C21.0247 12.1216 21.1135 12.0848 21.206 12.0847H24.3486ZM18.0635 12.4334V13.7283C18.0633 13.8207 18.0265 13.9093 17.9611 13.9747C17.8956 14.04 17.8068 14.0768 17.7143 14.0769H14.9209C14.8283 14.0768 14.7395 14.04 14.6741 13.9747C14.6086 13.9093 14.5718 13.8207 14.5717 13.7283V12.0847H17.7143C17.8068 12.0848 17.8956 12.1216 17.9611 12.187C18.0265 12.2523 18.0633 12.3409 18.0635 12.4334ZM11.791 9.70496V3.43652C11.7918 2.71028 12.0812 2.01401 12.5955 1.50048C13.1098 0.986949 13.8072 0.698086 14.5346 0.697266H24.3858C24.8603 0.697553 25.3266 0.82066 25.7392 1.05457C26.1518 1.28848 26.4967 1.6252 26.74 2.03188C26.4428 2.83407 26.0247 3.58629 25.5002 4.26258C25.1001 4.77697 24.6414 5.24322 24.1336 5.65196C22.6074 6.79344 20.9302 7.71832 19.1498 8.40021C16.8004 9.29788 14.3066 9.75949 11.791 9.7623L11.791 9.70496ZM12.6384 17.8076C12.078 16.5618 11.7891 15.2113 11.791 13.8456V10.7185L13.8733 11.936V13.7283C13.8736 14.0056 13.9841 14.2714 14.1805 14.4675C14.3769 14.6636 14.6431 14.7739 14.9209 14.7742H17.7143C17.992 14.7739 18.2583 14.6636 18.4546 14.4675C18.651 14.2714 18.7615 14.0056 18.7618 13.7283V13.4293H20.1585V13.7283C20.1588 14.0056 20.2693 14.2714 20.4657 14.4675C20.6621 14.6636 20.9283 14.7739 21.206 14.7742H23.9995C24.2772 14.7739 24.5435 14.6636 24.7398 14.4675C24.9362 14.2714 25.0467 14.0056 25.047 13.7283V11.936L27.1294 10.7185V13.8456C27.1293 15.465 26.7233 17.0587 25.9481 18.4812C25.173 19.9037 24.0535 21.1099 22.6917 21.9896C21.7286 22.6105 20.6066 22.9407 19.4602 22.9407C18.3138 22.9407 17.1917 22.6105 16.2287 21.9896C14.6515 20.9722 13.4042 19.5193 12.6384 17.8076ZM19.4602 29.0859C18.2858 29.0849 17.1345 28.7608 16.1325 28.1494C15.1305 27.5379 14.3166 26.6626 13.7801 25.6196L13.9484 25.5534C14.3874 25.3827 14.7643 25.0832 15.0294 24.6944C15.2945 24.3056 15.4355 23.8457 15.4337 23.3753V22.2903C15.5699 22.3879 15.7079 22.4836 15.8493 22.575C16.9254 23.2688 18.1792 23.6378 19.4602 23.6378C20.7412 23.6378 21.9949 23.2687 23.0711 22.5749C23.2125 22.4836 23.3504 22.3879 23.4867 22.2903V23.3753C23.4849 23.8457 23.6258 24.3056 23.891 24.6944C24.1561 25.0832 24.533 25.3827 24.9719 25.5534L25.1403 25.6196C24.6038 26.6626 23.7899 27.5379 22.7879 28.1494C21.7859 28.7608 20.6345 29.0849 19.4602 29.0859ZM44.3016 49.1572C44.3013 49.4609 44.1803 49.7521 43.9652 49.9668C43.7501 50.1816 43.4585 50.3024 43.1544 50.3027H27.0601C26.7559 50.3024 26.4643 50.1816 26.2492 49.9668C26.0341 49.7521 25.9131 49.4609 25.9128 49.1572V35.4288H44.3016V49.1572ZM44.3016 34.7316H25.9128V33.088C25.9131 32.7843 26.0341 32.4932 26.2492 32.2784C26.4643 32.0637 26.7559 31.9429 27.0601 31.9425H43.1544C43.4585 31.9429 43.7501 32.0637 43.9652 32.2784C44.1803 32.4932 44.3013 32.7843 44.3016 33.088V34.7316ZM38.3022 44.8497C38.2286 44.9059 38.1804 44.9889 38.1681 45.0806C38.1558 45.1722 38.1805 45.265 38.2368 45.3385C38.293 45.4119 38.3762 45.4601 38.468 45.4723C38.5598 45.4846 38.6527 45.4599 38.7263 45.4038L41.2743 43.4594C41.3657 43.3896 41.4397 43.2998 41.4907 43.1969C41.5417 43.0939 41.5682 42.9806 41.5682 42.8658C41.5682 42.751 41.5417 42.6377 41.4907 42.5347C41.4398 42.4318 41.3657 42.342 41.2743 42.2722L38.7263 40.3278C38.6527 40.2716 38.5598 40.247 38.468 40.2592C38.3762 40.2715 38.293 40.3196 38.2368 40.3931C38.1805 40.4666 38.1558 40.5594 38.1681 40.651C38.1804 40.7427 38.2286 40.8257 38.3022 40.8819L40.8503 42.8263C40.8564 42.8309 40.8613 42.8369 40.8647 42.8438C40.8681 42.8506 40.8698 42.8582 40.8698 42.8658C40.8698 42.8734 40.8681 42.881 40.8647 42.8878C40.8613 42.8947 40.8563 42.9006 40.8503 42.9053L38.3022 44.8497ZM30.3861 33.0259C30.3171 33.0259 30.2496 33.0464 30.1921 33.0847C30.1347 33.123 30.09 33.1774 30.0635 33.2411C30.0371 33.3048 30.0302 33.3749 30.0437 33.4426C30.0571 33.5102 30.0904 33.5723 30.1392 33.6211C30.1881 33.6698 30.2503 33.703 30.318 33.7165C30.3858 33.7299 30.456 33.723 30.5198 33.6966C30.5836 33.6702 30.6381 33.6256 30.6765 33.5682C30.7148 33.5109 30.7353 33.4435 30.7353 33.3745C30.7353 33.3288 30.7263 33.2834 30.7087 33.2411C30.6912 33.1988 30.6655 33.1604 30.633 33.128C30.6006 33.0956 30.5621 33.07 30.5198 33.0524C30.4774 33.0349 30.432 33.0259 30.3861 33.0259ZM28.9894 33.0259C28.9204 33.0259 28.8529 33.0464 28.7954 33.0847C28.738 33.123 28.6933 33.1774 28.6668 33.2411C28.6404 33.3048 28.6335 33.3749 28.647 33.4426C28.6604 33.5102 28.6937 33.5723 28.7425 33.6211C28.7914 33.6698 28.8536 33.703 28.9213 33.7165C28.989 33.7299 29.0593 33.723 29.1231 33.6966C29.1869 33.6702 29.2414 33.6256 29.2798 33.5682C29.3181 33.5109 29.3386 33.4435 29.3386 33.3745C29.3386 33.3288 29.3296 33.2834 29.312 33.2411C29.2945 33.1988 29.2688 33.1604 29.2363 33.128C29.2039 33.0956 29.1654 33.07 29.1231 33.0524C29.0807 33.0349 29.0353 33.0259 28.9894 33.0259ZM28.9401 43.4594L31.4881 45.4038C31.5617 45.4599 31.6546 45.4846 31.7464 45.4723C31.8382 45.4601 31.9214 45.4119 31.9776 45.3385C32.0339 45.265 32.0586 45.1722 32.0463 45.0806C32.0341 44.9889 31.9858 44.9059 31.9122 44.8497L29.3641 42.9053C29.3581 42.9006 29.3531 42.8947 29.3497 42.8878C29.3464 42.881 29.3446 42.8734 29.3446 42.8658C29.3446 42.8581 29.3464 42.8506 29.3498 42.8437C29.3532 42.8369 29.3581 42.8309 29.3642 42.8263L31.9122 40.8819C31.9858 40.8257 32.0341 40.7427 32.0463 40.651C32.0586 40.5594 32.0339 40.4666 31.9777 40.3931C31.9498 40.3567 31.9151 40.3262 31.8754 40.3032C31.8357 40.2802 31.7919 40.2653 31.7464 40.2592C31.6546 40.247 31.5617 40.2716 31.4881 40.3278L28.9401 42.2722C28.8488 42.3419 28.7747 42.4318 28.7237 42.5347C28.6728 42.6377 28.6462 42.7509 28.6462 42.8658C28.6462 42.9806 28.6727 43.0939 28.7237 43.1968C28.7747 43.2998 28.8487 43.3896 28.9401 43.4594H28.9401ZM27.5927 33.0259C27.5237 33.0259 27.4562 33.0464 27.3987 33.0847C27.3413 33.123 27.2966 33.1774 27.2701 33.2411C27.2437 33.3048 27.2368 33.3749 27.2503 33.4426C27.2637 33.5102 27.297 33.5723 27.3458 33.6211C27.3946 33.6698 27.4569 33.703 27.5246 33.7165C27.5923 33.7299 27.6625 33.723 27.7263 33.6966C27.7901 33.6702 27.8447 33.6256 27.8831 33.5682C27.9214 33.5109 27.9419 33.4435 27.9419 33.3745C27.9419 33.3288 27.9329 33.2834 27.9153 33.2411C27.8978 33.1988 27.8721 33.1604 27.8396 33.128C27.8072 33.0956 27.7687 33.07 27.7263 33.0524C27.684 33.0349 27.6386 33.0259 27.5927 33.0259ZM33.5123 45.9554C33.5531 45.9764 33.5976 45.9892 33.6433 45.993C33.689 45.9968 33.735 45.9916 33.7787 45.9777C33.8224 45.9637 33.8629 45.9413 33.8979 45.9117C33.9329 45.8821 33.9617 45.846 33.9827 45.8052L36.8525 40.2458C36.8948 40.1636 36.9027 40.068 36.8745 39.9801C36.8462 39.8921 36.7841 39.8189 36.7019 39.7766C36.6196 39.7342 36.5239 39.7262 36.4358 39.7543C36.3476 39.7824 36.2742 39.8443 36.2317 39.9263L33.3619 45.4858C33.3195 45.568 33.3115 45.6636 33.3397 45.7517C33.3679 45.8398 33.43 45.9131 33.5123 45.9554ZM19.4602 18.113C19.8887 18.1125 20.2996 17.9424 20.6027 17.6398C20.9058 17.3373 21.0763 16.9271 21.0768 16.4992V15.9483C21.0768 15.8559 21.04 15.7672 20.9745 15.7018C20.9091 15.6364 20.8202 15.5997 20.7276 15.5997C20.635 15.5997 20.5462 15.6364 20.4807 15.7018C20.4152 15.7672 20.3785 15.8559 20.3785 15.9483V16.4992C20.3785 16.7423 20.2817 16.9755 20.1095 17.1475C19.9373 17.3194 19.7037 17.416 19.4602 17.416C19.2166 17.416 18.9831 17.3194 18.8109 17.1475C18.6387 16.9755 18.5419 16.7423 18.5419 16.4992V15.9483C18.5419 15.8559 18.5051 15.7672 18.4396 15.7018C18.3742 15.6364 18.2853 15.5997 18.1927 15.5997C18.1001 15.5997 18.0113 15.6364 17.9458 15.7018C17.8803 15.7672 17.8436 15.8559 17.8436 15.9483V16.4992C17.8441 16.9271 18.0146 17.3373 18.3176 17.6398C18.6207 17.9424 19.0316 18.1125 19.4602 18.113ZM17.892 20.036C18.3825 20.2672 18.918 20.3875 19.4604 20.3883H19.4714C20.0099 20.3858 20.5413 20.2655 21.0283 20.036C21.0697 20.0164 21.1069 19.9888 21.1377 19.9549C21.1685 19.9209 21.1922 19.8813 21.2076 19.8381C21.2231 19.795 21.2298 19.7493 21.2276 19.7036C21.2253 19.6578 21.214 19.613 21.1944 19.5716C21.1747 19.5303 21.1471 19.4932 21.1131 19.4624C21.0791 19.4317 21.0394 19.408 20.9962 19.3926C20.953 19.3772 20.9072 19.3704 20.8614 19.3727C20.8156 19.375 20.7707 19.3862 20.7293 19.4058C20.3352 19.5917 19.9051 19.689 19.4692 19.691H19.4603C19.0214 19.6904 18.588 19.593 18.1911 19.4058C18.1074 19.3664 18.0115 19.3617 17.9244 19.3928C17.8372 19.4239 17.766 19.4883 17.7264 19.5718C17.6868 19.6553 17.682 19.7511 17.713 19.8381C17.7441 19.9251 17.8085 19.9963 17.892 20.036H17.892Z" fill="#FFFCFC"/>
</svg>
