<svg width="20" height="20" viewBox="0 0 20 20" fill="none" xmlns="http://www.w3.org/2000/svg">
<circle cx="9.69385" cy="12.1438" r="7.65625" fill="#FAFAFA"/>
<g clip-path="url(#clip0_226_115)">
<path d="M3.11527 17.6373L1.58325 0.454339H18.4172L16.8835 17.6347L9.98997 19.5457L3.11527 17.6373Z" fill="#E44D26"/>
<path d="M10.0002 18.085L15.5706 16.5406L16.8812 1.85926H10.0002V18.085Z" fill="#F16529"/>
<path d="M10.0001 8.23217H7.21136L7.01873 6.07403H10.0001V3.96672H4.71558L4.76611 4.53206L5.28398 10.3396H10.0001V8.23217ZM10.0001 13.7053L9.99073 13.7079L7.64379 13.074L7.49388 11.3934H5.37815L5.67337 14.7023L9.99043 15.9007L10.0001 15.8981V13.7053Z" fill="#EBEBEB"/>
<path d="M9.99292 8.23217V10.3396H12.5879L12.3434 13.0728L9.99292 13.7072V15.8998L14.3133 14.7023L14.345 14.3463L14.8402 8.79812L14.8915 8.23217H14.3238H9.99292ZM9.99292 3.96672V6.07403H15.0834L15.1257 5.60056L15.2218 4.53206L15.2722 3.96672H9.99292Z" fill="white"/>
</g>
<defs>
<clipPath id="clip0_226_115">
<rect width="19.6" height="19.6" fill="white" transform="translate(0.200195 0.199999)"/>
</clipPath>
</defs>
</svg>
