<svg width="28" height="28" viewBox="0 0 28 28" fill="none" xmlns="http://www.w3.org/2000/svg">
<circle cx="13.5625" cy="17.0625" r="10.9375" fill="#FAFAFA"/>
<path d="M24.5 17.0625C24.5 19.3733 23.7681 21.6248 22.4093 23.4939C21.0505 25.363 19.1346 26.7538 16.9365 27.4666C14.7383 28.1794 12.3709 28.1778 10.1738 27.4618C7.97667 26.7459 6.06276 25.3524 4.7066 23.4814C3.35045 21.6103 2.62174 19.3578 2.62501 17.047C2.62828 14.7362 3.36336 12.4858 4.72481 10.6186C6.08626 8.75138 8.00411 7.36337 10.2032 6.65364C12.4024 5.94391 14.7698 5.94894 16.9659 6.668L16.7355 7.37174C14.6881 6.70136 12.4809 6.69667 10.4307 7.35835C8.38043 8.02003 6.59242 9.31407 5.32315 11.0548C4.05387 12.7956 3.36856 14.8937 3.36551 17.0481C3.36246 19.2024 4.04183 21.3024 5.30617 23.0468C6.57051 24.7912 8.35484 26.0903 10.4032 26.7577C12.4516 27.4252 14.6587 27.4268 16.7081 26.7622C18.7574 26.0976 20.5435 24.8011 21.8104 23.0585C23.0772 21.3159 23.7595 19.2169 23.7595 17.0625H24.5Z" fill="#F7E017"/>
<path d="M4.16418 24.9104L1.97559 0.363403H26.0241L23.8331 24.9067L13.9852 27.6367L4.16418 24.9104Z" fill="#E44D26"/>
<path d="M14 25.55L21.9577 23.3437L23.83 2.37036H14V25.55Z" fill="#F16529"/>
<path d="M14 11.4745H10.0161L9.7409 8.39142H14V5.38098H6.45068L6.52287 6.18861L7.26268 14.4851H14V11.4745ZM14 19.2933L13.9866 19.297L10.6338 18.3914L10.4197 15.9906H7.39722L7.81896 20.7175L13.9862 22.4295L14 22.4258V19.2933Z" fill="#EBEBEB"/>
<path d="M13.9893 11.4745V14.4851H17.6964L17.3471 18.3896L13.9893 19.2959V22.4282L20.1613 20.7175L20.2066 20.209L20.914 12.283L20.9873 11.4745H20.1762H13.9893ZM13.9893 5.38098V8.39142H21.2614L21.3218 7.71504L21.4591 6.18861L21.5311 5.38098H13.9893Z" fill="white"/>
</svg>
