<svg width="20" height="20" viewBox="0 0 20 20" fill="none" xmlns="http://www.w3.org/2000/svg">
<g clip-path="url(#clip0_226_95)">
<path d="M19.7942 0.200001H0.205693C0.202522 0.200001 0.199951 0.202572 0.199951 0.205743V19.7943C0.199951 19.7974 0.202522 19.8 0.205693 19.8H19.7942C19.7974 19.8 19.8 19.7974 19.8 19.7943V0.205743C19.8 0.202572 19.7974 0.200001 19.7942 0.200001Z" fill="#F7DF1E"/>
<path d="M12.6031 14.3641C12.9859 15.0148 13.5218 15.4742 14.4023 15.4742C15.1679 15.4742 15.6656 15.0914 15.6656 14.5555C15.6656 13.943 15.1679 13.7133 14.3257 13.3305L13.8664 13.1391C12.5265 12.5648 11.646 11.8758 11.646 10.3828C11.646 9.00469 12.6796 7.93281 14.3257 7.93281C15.5125 7.93281 16.3546 8.35391 16.9289 9.42578L15.5125 10.3445C15.2062 9.77031 14.8617 9.54063 14.3257 9.54063C13.7898 9.54063 13.4453 9.88516 13.4453 10.3445C13.4453 10.8805 13.7898 11.1102 14.5937 11.4547L15.0531 11.6461C16.6226 12.3352 17.5031 12.9859 17.5031 14.5555C17.5031 16.2016 16.2015 17.1203 14.4406 17.1203C12.7179 17.1203 11.6078 16.3164 11.0718 15.2445L12.6031 14.3641ZM6.09526 14.5172C6.40151 15.0148 6.6312 15.4742 7.28198 15.4742C7.89448 15.4742 8.2773 15.2445 8.2773 14.3258V7.97109H10.1148V14.2492C10.1148 16.1633 9.00464 17.0055 7.35855 17.0055C5.86558 17.0055 5.02339 16.2398 4.60229 15.3211L6.09526 14.5172Z" fill="#324A5E"/>
</g>
<defs>
<clipPath id="clip0_226_95">
<rect width="19.6" height="19.6" fill="white" transform="translate(0.199951 0.200001)"/>
</clipPath>
</defs>
</svg>
