<svg width="17" height="32" viewBox="0 0 17 32" fill="none" xmlns="http://www.w3.org/2000/svg">
<path d="M7.45703 0C6.66138 0 5.89832 0.31607 5.33571 0.87868C4.7731 1.44129 4.45703 2.20435 4.45703 3C4.45703 3.79565 4.7731 4.55871 5.33571 5.12132C5.89832 5.68393 6.66138 6 7.45703 6C8.25268 6 9.01574 5.68393 9.57835 5.12132C10.141 4.55871 10.457 3.79565 10.457 3C10.457 2.20435 10.141 1.44129 9.57835 0.87868C9.01574 0.31607 8.25268 0 7.45703 0ZM1.5 0.015625C0.671387 0.015625 0 0.687012 0 1.51562V6.5C0 8.42969 1.06836 10 2.99805 10H4V20.498V20.5V30.5C4 31.3286 4.67139 32 5.5 32C6.32861 32 7 31.3286 7 30.5V23H9V30.5C9 31.3286 9.67139 32 10.5 32C11.3286 32 12 31.3286 12 30.5V21.002V21V18.5977C12 18.5823 11.767 18.5768 11.7832 18.5605L16.1719 14.0371C16.4531 13.7559 16.543 13.3745 16.543 12.9766C16.543 12.5786 16.3164 12.1973 16.0352 11.916L11.5586 7.43945C11.2601 7.14093 10.8695 6.99823 10.4785 7.00391C10.4713 7.00372 10.4643 7 10.457 7H8.49805H4.45703H2.99805C2.72217 7 3 6.77588 3 6.5V1.51562C3 0.687012 2.32861 0.015625 1.5 0.015625ZM12 11.5801L13.3965 12.9766L12 14.373V11.5801Z" fill="white"/>
</svg>
