<svg width="29" height="29" viewBox="0 0 29 29" fill="none" xmlns="http://www.w3.org/2000/svg">
<path d="M23.6067 9.7468C23.3087 9.6319 23.0081 9.52546 22.7053 9.42757C22.7555 9.19824 22.802 8.96788 22.8446 8.73661C23.5269 5.01399 23.0808 2.01506 21.5573 1.02786C20.0967 0.0810433 17.7078 1.06825 15.2951 3.42803C15.0574 3.66109 14.8249 3.90087 14.598 4.14713C14.446 3.98338 14.2913 3.82281 14.134 3.6655C11.6055 1.14206 9.07098 0.0788148 7.54915 1.06894C6.08989 2.0184 5.65767 4.83781 6.27193 8.36572C6.33304 8.71508 6.40204 9.06265 6.47887 9.40807C6.12025 9.52256 5.7739 9.64457 5.44254 9.77437C2.47818 10.936 0.584961 12.7566 0.584961 14.6449C0.584961 16.5954 2.61722 18.5517 5.705 19.7378C5.95538 19.8335 6.20783 19.9222 6.46214 20.0038C6.37952 20.3759 6.30618 20.7506 6.24219 21.1273C5.65655 24.594 6.11393 27.3465 7.56935 28.2901C9.0726 29.2644 11.5956 28.263 14.0524 25.8493C14.2465 25.6585 14.4415 25.4561 14.6366 25.244C14.8825 25.5106 15.1349 25.7694 15.3935 26.0202C17.7732 28.3217 20.1235 29.2512 21.5776 28.305C23.0795 27.3279 23.5675 24.3708 22.9338 20.7732C22.8855 20.4984 22.8291 20.2177 22.7659 19.9319C22.9431 19.8731 23.117 19.8124 23.2866 19.7492C26.4966 18.5539 28.585 16.6214 28.585 14.6449C28.585 12.7498 26.6308 10.9169 23.6067 9.7468Z" fill="#53C1DE"/>
<path d="M22.9099 18.4732C22.7569 18.5301 22.5997 18.5852 22.4396 18.6385C22.0852 17.3776 21.6069 16.0368 21.0218 14.6517C21.5803 13.2993 22.04 11.9757 22.3845 10.7229C22.6709 10.8162 22.9489 10.9144 23.2168 11.0182C25.8079 12.0206 27.3884 13.5029 27.3884 14.645C27.3884 15.8616 25.6814 17.441 22.91 18.4732H22.9099ZM21.76 21.0344C22.0401 22.6252 22.0802 24.0635 21.8945 25.1879C21.7277 26.1982 21.3924 26.8718 20.9778 27.1416C20.0954 27.7157 18.2083 26.9694 16.1733 25.0011C15.94 24.7755 15.7049 24.5346 15.4692 24.2797C16.2582 23.3097 17.0467 22.1821 17.8162 20.93C19.1699 20.7951 20.4487 20.5743 21.6084 20.2731C21.6654 20.5321 21.7162 20.786 21.76 21.0344ZM10.1304 27.0424C9.2683 27.3846 8.58168 27.3944 8.16668 27.1254C7.2834 26.553 6.91636 24.3426 7.41711 21.3781C7.47665 21.0278 7.54483 20.6793 7.62157 20.3332C8.76842 20.6183 10.0379 20.8235 11.3948 20.9472C12.1694 22.1724 12.9807 23.2986 13.7983 24.2848C13.6246 24.4738 13.4467 24.6578 13.2649 24.8369C12.1785 25.9044 11.0899 26.6615 10.1305 27.0424H10.1304ZM6.09157 18.4657C4.72626 17.9411 3.59874 17.2595 2.82587 16.5158C2.13145 15.8472 1.78076 15.1836 1.78076 14.645C1.78076 13.4991 3.30085 12.0374 5.83606 11.0439C6.15426 10.9198 6.47563 10.8061 6.79976 10.7031C7.15019 11.9841 7.6098 13.3234 8.16445 14.6777C7.60261 16.0522 7.13644 17.4129 6.78278 18.7088C6.55064 18.6342 6.32017 18.5531 6.09157 18.4657ZM7.44548 8.10754C6.91921 5.08479 7.26865 2.80467 8.14809 2.23252C9.0849 1.62304 11.1562 2.49213 13.3393 4.67086C13.4789 4.81014 13.619 4.95596 13.7594 5.1068C12.946 6.08857 12.1422 7.20628 11.3743 8.4244C10.0574 8.56159 8.79679 8.78193 7.63793 9.07706C7.56654 8.75571 7.50237 8.43239 7.44548 8.1074V8.10754ZM19.5233 11.4595C19.2495 10.9281 18.9657 10.4034 18.6718 9.88571C19.5653 10.0124 20.4212 10.181 21.2249 10.3872C20.9836 11.2565 20.6829 12.1654 20.3287 13.0972C20.07 12.5453 19.8014 11.9993 19.5233 11.4595ZM14.5979 6.06754C15.1496 6.73928 15.7022 7.48943 16.2457 8.30323C15.1432 8.24467 14.0389 8.2444 12.9364 8.30239C13.4803 7.49611 14.0376 6.74708 14.5979 6.06754ZM9.64104 11.4687C9.36636 12.0042 9.10284 12.5469 8.8507 13.0962C8.50237 12.1676 8.20435 11.2547 7.96098 10.373C8.75987 10.1721 9.61179 10.0079 10.4994 9.8832C10.2023 10.4041 9.91608 10.9327 9.64104 11.4687ZM10.5249 19.5027C9.60795 19.3877 8.74314 19.2318 7.9445 19.0364C8.19171 18.1392 8.4963 17.2066 8.85206 16.2581C9.10527 16.8078 9.36995 17.3508 9.64587 17.8865C9.92742 18.433 10.2205 18.9719 10.5249 19.5027ZM14.631 23.3174C14.0641 22.6298 13.4987 21.8693 12.9464 21.0514C13.4825 21.075 14.029 21.087 14.5846 21.087C15.1553 21.087 15.7195 21.0727 16.2748 21.0448C15.7296 21.8777 15.179 22.6393 14.631 23.3174ZM20.3401 16.2098C20.7143 17.1686 21.0298 18.0961 21.2804 18.9782C20.4685 19.1864 19.592 19.3541 18.6685 19.4786C18.9644 18.9513 19.251 18.4174 19.5281 17.8772C19.8097 17.3282 20.0805 16.7723 20.3401 16.2098ZM18.4919 17.2056C18.0678 18.0337 17.6198 18.8462 17.1486 19.6416C16.3179 19.7083 15.4594 19.7427 14.5846 19.7427C13.7133 19.7427 12.8657 19.7122 12.0495 19.6527C11.5661 18.8592 11.1097 18.0453 10.6811 17.213C10.2545 16.3851 9.856 15.5392 9.48651 14.6773C9.85506 13.8151 10.2523 12.9688 10.6775 12.1402V12.1405C11.1025 11.3117 11.5554 10.5013 12.0351 9.71119C12.8678 9.64044 13.7216 9.60339 14.5847 9.60339C15.4516 9.60339 16.3065 9.64072 17.139 9.71203C17.6139 10.501 18.0638 11.3085 18.4881 12.1331C18.9147 12.9599 19.3172 13.802 19.6951 14.6582C19.3211 15.5231 18.9198 16.3728 18.492 17.2056H18.4919ZM20.9595 2.19254C21.897 2.80035 22.2617 5.25123 21.6726 8.46535C21.634 8.67473 21.592 8.88331 21.5467 9.09099C20.3851 8.78973 19.1236 8.56549 17.8029 8.42621C17.0335 7.19485 16.2364 6.0752 15.4361 5.1061C15.6458 4.87888 15.8605 4.65754 16.08 4.4423C18.1472 2.42026 20.0791 1.62192 20.9595 2.19254Z" fill="white"/>
<path d="M14.5847 11.8347C15.9657 11.8347 17.085 13.093 17.085 14.6449C17.085 16.1971 15.9657 17.4553 14.5847 17.4553C13.2039 17.4553 12.0845 16.1971 12.0845 14.6449C12.0845 13.093 13.2039 11.8347 14.5847 11.8347Z" fill="#53C1DE"/>
</svg>
