<svg width="21" height="21" viewBox="0 0 21 21" fill="none" xmlns="http://www.w3.org/2000/svg">
<path d="M16.7246 7.02276C16.516 6.94233 16.3056 6.86782 16.0936 6.7993C16.1288 6.63877 16.1613 6.47752 16.1911 6.31563C16.6687 3.7098 16.3564 1.61054 15.29 0.919502C14.2676 0.256733 12.5954 0.947775 10.9065 2.59963C10.7401 2.76277 10.5774 2.93061 10.4185 3.10299C10.3121 2.98837 10.2038 2.87597 10.0937 2.76585C8.32374 0.999447 6.54959 0.255173 5.48431 0.948263C4.46283 1.61288 4.16027 3.58647 4.59025 6.05601C4.63303 6.30056 4.68133 6.54386 4.73511 6.78565C4.48408 6.8658 4.24163 6.9512 4.00968 7.04207C1.93463 7.85517 0.609375 9.12962 0.609375 10.4515C0.609375 11.8168 2.03195 13.1862 4.1934 14.0164C4.36867 14.0835 4.54539 14.1455 4.7234 14.2027C4.66557 14.4632 4.61423 14.7254 4.56943 14.9891C4.15949 17.4158 4.47965 19.3426 5.49845 20.0031C6.55072 20.6851 8.3168 19.9841 10.0366 18.2945C10.1725 18.1609 10.3089 18.0193 10.4455 17.8708C10.6176 18.0574 10.7943 18.2386 10.9754 18.4141C12.6412 20.0252 14.2863 20.6758 15.3043 20.0135C16.3556 19.3295 16.6972 17.2596 16.2536 14.7412C16.2197 14.5489 16.1803 14.3524 16.136 14.1523C16.2601 14.1112 16.3818 14.0687 16.5005 14.0244C18.7475 13.1877 20.2094 11.835 20.2094 10.4515C20.2094 9.12484 18.8414 7.84181 16.7246 7.02276Z" fill="#53C1DE"/>
<path d="M16.2367 13.1312C16.1296 13.1711 16.0196 13.2096 15.9075 13.2469C15.6594 12.3643 15.3246 11.4257 14.915 10.4561C15.3059 9.50947 15.6278 8.58297 15.8689 7.70601C16.0694 7.77133 16.264 7.84007 16.4515 7.9127C18.2653 8.61437 19.3716 9.652 19.3716 10.4515C19.3716 11.3031 18.1768 12.4087 16.2368 13.1312H16.2367ZM15.4317 14.924C15.6278 16.0376 15.6559 17.0444 15.5259 17.8315C15.4092 18.5387 15.1744 19.0102 14.8842 19.1991C14.2665 19.6009 12.9455 19.0786 11.5211 17.7008C11.3577 17.5428 11.1932 17.3742 11.0282 17.1957C11.5805 16.5168 12.1324 15.7275 12.6711 14.851C13.6187 14.7565 14.5138 14.602 15.3256 14.3911C15.3655 14.5725 15.4011 14.7502 15.4317 14.924ZM7.29103 19.1297C6.68756 19.3692 6.20693 19.376 5.91643 19.1878C5.29814 18.7871 5.04121 17.2398 5.39173 15.1646C5.43341 14.9194 5.48114 14.6755 5.53485 14.4332C6.33765 14.6328 7.22632 14.7764 8.17614 14.863C8.71836 15.7207 9.28626 16.509 9.85858 17.1994C9.73694 17.3316 9.61243 17.4605 9.48515 17.5858C8.72469 18.333 7.96267 18.863 7.29111 19.1297H7.29103ZM4.46386 13.1259C3.50814 12.7588 2.71888 12.2816 2.17787 11.761C1.69177 11.293 1.44629 10.8285 1.44629 10.4515C1.44629 9.64937 2.51035 8.62616 4.28499 7.93074C4.50774 7.84383 4.7327 7.76427 4.95958 7.69217C5.20489 8.58882 5.52661 9.52633 5.91487 10.4744C5.52158 11.4365 5.19526 12.389 4.9477 13.2962C4.7852 13.2439 4.62387 13.1871 4.46386 13.1259ZM5.41159 5.87526C5.0432 3.75933 5.28781 2.16324 5.90342 1.76274C6.55919 1.3361 8.00907 1.94447 9.53728 3.46958C9.63496 3.56707 9.73306 3.66915 9.83134 3.77473C9.26197 4.46197 8.69928 5.24437 8.16174 6.09706C7.23993 6.19309 6.35751 6.34732 5.54631 6.55392C5.49634 6.32897 5.45142 6.10265 5.41159 5.87516V5.87526ZM13.866 8.22166C13.6744 7.84966 13.4757 7.48235 13.27 7.11997C13.8954 7.20869 14.4946 7.32666 15.0572 7.47105C14.8883 8.07951 14.6778 8.71576 14.4299 9.368C14.2487 8.98171 14.0608 8.59952 13.866 8.22166ZM10.4183 4.44725C10.8045 4.91747 11.1913 5.44257 11.5717 6.01224C10.8 5.97125 10.027 5.97105 9.2552 6.01165C9.636 5.44725 10.0261 4.92293 10.4183 4.44725ZM6.94848 8.22809C6.75621 8.60295 6.57175 8.98279 6.39524 9.36732C6.15141 8.71732 5.9428 8.07824 5.77244 7.4611C6.33166 7.32042 6.92801 7.20547 7.54934 7.11822C7.34135 7.48284 7.14101 7.8529 6.94848 8.22809ZM7.56721 13.8519C6.92532 13.7713 6.31995 13.6623 5.7609 13.5255C5.93395 12.8974 6.14716 12.2446 6.3962 11.5806C6.57345 11.9655 6.75872 12.3455 6.95187 12.7205C7.14895 13.1031 7.35413 13.4803 7.56721 13.8519ZM10.4415 16.5222C10.0446 16.0408 9.64884 15.5085 9.26223 14.9359C9.63747 14.9525 10.0201 14.9609 10.409 14.9609C10.8085 14.9609 11.2034 14.9508 11.5921 14.9313C11.2104 15.5144 10.8251 16.0475 10.4415 16.5222ZM14.4378 11.5468C14.6998 12.218 14.9206 12.8673 15.096 13.4847C14.5277 13.6305 13.9142 13.7479 13.2677 13.835C13.4749 13.4659 13.6755 13.0921 13.8694 12.714C14.0666 12.3297 14.2561 11.9406 14.4378 11.5468ZM13.1441 12.2439C12.8472 12.8236 12.5336 13.3923 12.2038 13.9491C11.6223 13.9958 11.0213 14.0199 10.409 14.0199C9.79907 14.0199 9.20576 13.9985 8.63439 13.9569C8.29605 13.4014 7.97653 12.8317 7.6765 12.2491C7.37788 11.6695 7.09895 11.0774 6.84032 10.4741C7.0983 9.87055 7.37638 9.27814 7.67399 8.69812V8.69831C7.9715 8.11816 8.28851 7.55092 8.62433 6.99781C9.20723 6.94828 9.80488 6.92235 10.409 6.92235C11.0159 6.92235 11.6143 6.94848 12.197 6.99839C12.5295 7.55065 12.8444 8.11592 13.1414 8.69314C13.44 9.27188 13.7218 9.86139 13.9863 10.4607C13.7245 11.0662 13.4436 11.6609 13.1442 12.2439H13.1441ZM14.8714 1.73476C15.5277 2.16022 15.7829 3.87584 15.3706 6.12572C15.3435 6.27229 15.3142 6.41829 15.2824 6.56367C14.4693 6.35278 13.5863 6.19582 12.6618 6.09832C12.1232 5.23637 11.5652 4.45261 11.005 3.77425C11.1518 3.61519 11.3021 3.46025 11.4558 3.30959C12.9028 1.89416 14.2552 1.33532 14.8714 1.73476Z" fill="white"/>
<path d="M10.4091 8.48431C11.3758 8.48431 12.1593 9.36508 12.1593 10.4515C12.1593 11.5379 11.3758 12.4187 10.4091 12.4187C9.44256 12.4187 8.65894 11.5379 8.65894 10.4515C8.65894 9.36508 9.44256 8.48431 10.4091 8.48431Z" fill="#53C1DE"/>
</svg>
