<svg width="28" height="28" viewBox="0 0 28 28" fill="none" xmlns="http://www.w3.org/2000/svg">
<path d="M9.51053 4.32947C10.5594 3.00414 12.5345 2.34964 13.8809 2.31581C17.6562 2.24347 19.23 6.99764 19.3514 8.88764L21.099 9.41731C20.6965 3.62364 17.1324 0.584473 13.7222 0.584473C10.5244 0.583306 7.57153 2.93297 6.38153 6.37814C4.75636 10.9713 5.82269 15.3871 7.81536 18.921C7.64153 19.1508 7.53653 19.5556 7.57153 19.9441C7.60536 21.0046 8.49669 21.8878 9.56419 21.8878H9.63419C10.753 21.8528 11.6094 20.9171 11.5569 19.803C11.5569 18.7425 10.648 17.8616 9.58169 17.8616H9.51053C9.44053 17.8616 9.33669 17.8616 9.24803 17.8955C7.79786 15.4221 7.18536 12.7715 7.41403 9.91197C7.55286 7.75597 8.25286 5.88347 9.51053 4.32947Z" fill="#6C4EB0"/>
<path d="M1.0874 24.3811C2.25873 26.1474 4.6539 27.2767 7.2754 27.2767C7.97423 27.2767 8.70923 27.2254 9.42556 27.0481C13.9709 26.1649 17.4149 23.4092 19.3901 19.3469L19.4064 19.3107C20.4202 19.2221 21.2066 18.3202 21.1552 17.2422C21.1016 16.1642 20.2277 15.2997 19.1626 15.2997H19.0914C17.9912 15.3359 17.1337 16.2716 17.1687 17.3857C17.2037 17.9504 17.4324 18.4101 17.7451 18.7449C16.5224 21.1482 14.6872 22.9134 11.9071 24.3986C10.0369 25.3867 8.06173 25.7589 6.13906 25.4941C4.5314 25.2654 3.27373 24.5386 2.50373 23.3742C1.35106 21.6067 1.24606 19.7004 2.20623 17.7929C2.9074 16.4151 3.95506 15.4082 4.65506 14.9124C4.48006 14.4539 4.27006 13.6769 4.16506 13.0947C-1.01144 16.8386 -0.48527 21.9602 1.0874 24.3811Z" fill="#6C4EB0"/>
<path d="M27.376 23.6017C28.4237 21.4818 28.3373 17.9142 25.6622 14.8575L25.6458 14.8925C22.938 11.6772 18.9515 9.91084 14.405 9.91084H13.81C13.5148 9.25751 12.8335 8.85034 12.0635 8.85034H12.011C10.9108 8.85034 10.0533 9.80584 10.0895 10.9177C10.1245 11.977 11.0158 12.8613 12.0821 12.8613H12.1685C12.956 12.8263 13.6373 12.3305 13.9161 11.6247H14.5636C17.2575 11.6247 19.8078 12.4192 22.1342 13.9732C23.9157 15.1573 25.1932 16.7113 25.9095 18.5663C26.5372 20.0853 26.5033 21.5693 25.857 22.8072C24.8607 24.7497 23.1818 25.7752 20.9628 25.7752C19.564 25.7752 18.2013 25.333 17.5013 25.0157C17.0825 25.3668 16.3825 25.9502 15.875 26.3048C17.4127 27.0095 18.969 27.4167 20.4717 27.4167C23.8807 27.4167 26.4135 25.4753 27.376 23.6017Z" fill="#6C4EB0"/>
</svg>
