<svg width="20" height="20" viewBox="0 0 20 20" fill="none" xmlns="http://www.w3.org/2000/svg">
<g clip-path="url(#clip0_226_108)">
<path d="M6.85742 3.23065C7.5916 2.30292 8.97422 1.84477 9.91665 1.82108C12.5594 1.77045 13.6611 5.09837 13.746 6.42137L14.9694 6.79213C14.6876 2.73657 12.1927 0.609151 9.80558 0.609151C7.5671 0.608335 5.50012 2.2531 4.66712 4.66472C3.5295 7.87993 4.27593 10.971 5.6708 13.4447C5.54912 13.6056 5.47562 13.889 5.50012 14.1609C5.5238 14.9033 6.14773 15.5215 6.89498 15.5215H6.94398C7.72717 15.497 8.3266 14.842 8.28985 14.0621C8.28985 13.3198 7.65367 12.7032 6.90723 12.7032H6.85742C6.80842 12.7032 6.73573 12.7032 6.67367 12.7269C5.65855 10.9955 5.2298 9.14005 5.38987 7.1384C5.48705 5.6292 5.97705 4.31845 6.85742 3.23065Z" fill="#6C4EB0"/>
<path d="M0.961031 17.2667C1.78096 18.5031 3.45758 19.2937 5.29263 19.2937C5.78182 19.2937 6.29631 19.2577 6.79775 19.1336C9.97948 18.5154 12.3903 16.5864 13.7729 13.7428L13.7843 13.7175C14.494 13.6554 15.0444 13.0241 15.0085 12.2695C14.9709 11.5149 14.3593 10.9098 13.6136 10.9098H13.5638C12.7937 10.9351 12.1935 11.5901 12.218 12.37C12.2425 12.7652 12.4025 13.087 12.6214 13.3214C11.7655 15.0037 10.4809 16.2393 8.5348 17.279C7.22568 17.9707 5.84306 18.2312 4.4972 18.0458C3.37183 17.8857 2.49146 17.377 1.95246 16.5619C1.1456 15.3247 1.0721 13.9902 1.74421 12.655C2.23503 11.6905 2.9684 10.9857 3.4584 10.6386C3.3359 10.3177 3.1889 9.77378 3.1154 9.36627C-0.508152 11.987 -0.139835 15.5721 0.961031 17.2667Z" fill="#6C4EB0"/>
<path d="M19.363 16.7212C20.0964 15.2373 20.036 12.7399 18.1634 10.6002L18.1519 10.6248C16.2564 8.37402 13.4659 7.13758 10.2833 7.13758H9.86684C9.66022 6.68025 9.18329 6.39523 8.64429 6.39523H8.60754C7.83742 6.39523 7.23717 7.06408 7.26249 7.84237C7.28699 8.5839 7.91092 9.20293 8.65736 9.20293H8.71779C9.26904 9.17843 9.74598 8.83135 9.94116 8.33727H10.3944C12.2801 8.33727 14.0653 8.89342 15.6938 9.98122C16.9408 10.8101 17.8351 11.8979 18.3365 13.1964C18.7759 14.2597 18.7522 15.2985 18.2997 16.165C17.6023 17.5248 16.4271 18.2426 14.8738 18.2426C13.8946 18.2426 12.9408 17.9331 12.4508 17.711C12.1576 17.9568 11.6676 18.3651 11.3123 18.6134C12.3887 19.1067 13.4781 19.3917 14.53 19.3917C16.9163 19.3917 18.6893 18.0327 19.363 16.7212Z" fill="#6C4EB0"/>
</g>
<defs>
<clipPath id="clip0_226_108">
<rect width="19.6" height="19.6" fill="white" transform="translate(0.199951 0.200001)"/>
</clipPath>
</defs>
</svg>
