<svg width="28" height="28" viewBox="0 0 28 28" fill="none" xmlns="http://www.w3.org/2000/svg">
<path fill-rule="evenodd" clip-rule="evenodd" d="M0.266602 12.2841C0.266602 12.4379 0.311883 12.5394 0.337258 12.6381C0.502633 13.2797 0.858102 13.8302 1.27985 14.3325C1.88054 15.0483 2.6162 15.6244 3.36979 16.1663C4.02341 16.6362 4.69038 17.0955 5.34663 17.5619C5.45929 17.642 5.56582 17.7341 5.6881 17.8323C5.58288 17.8892 5.49538 17.9393 5.40438 17.9854C4.53835 18.4247 3.70513 18.9171 2.9371 19.5136C2.47423 19.8732 2.02666 20.2554 1.71057 20.7548C1.20198 21.558 1.02195 22.4138 1.40104 23.3275C1.51173 23.5944 1.6806 23.8249 1.91882 23.9953C1.99604 24.0505 2.08266 24.1052 2.17301 24.1266C2.40445 24.1811 2.64026 24.2167 2.87454 24.2598L3.53801 24.2594C4.2717 24.194 4.93954 23.9426 5.54307 23.5261C6.48632 22.8751 7.12179 22.0023 7.39501 20.8821C7.59363 20.0679 7.60173 19.2528 7.36766 18.4424C7.34601 18.3671 7.31866 18.2934 7.29023 18.2206C7.26179 18.1477 7.22832 18.0768 7.18894 17.9861L8.69307 17.1211L8.7156 17.1404C8.68826 17.2298 8.65916 17.3191 8.63444 17.4094C8.45573 18.0622 8.33694 18.7263 8.3796 19.4038C8.4251 20.1257 8.62657 20.8014 9.04919 21.4045C9.39088 21.8923 10.2051 21.9104 10.5682 21.4209C10.697 21.247 10.8219 21.0652 10.9158 20.8712C11.161 20.3648 11.3881 19.8494 11.6224 19.3375L11.6633 19.2439C11.6464 19.4863 11.6267 19.6991 11.6178 19.9122C11.6038 20.2449 11.6232 20.5756 11.737 20.8922C11.8343 21.163 11.9999 21.3653 12.3101 21.401C12.5223 21.4253 12.6914 21.3281 12.8474 21.205C13.091 21.0127 13.289 20.7751 13.436 20.5052C13.8519 19.7415 14.2789 18.9825 14.6558 18.1996C15.0635 17.3528 15.4201 16.4813 15.7987 15.6201L15.8613 15.4674C15.9508 15.8189 16.0131 16.1632 16.1279 16.4892C16.2614 16.8674 16.4265 17.2366 16.6063 17.5956C16.6914 17.7651 16.6816 17.8752 16.5637 18.0173C16.0702 18.6123 15.5852 19.2146 15.0998 19.8161C14.9924 19.9489 14.8854 20.0841 14.796 20.2291C14.7419 20.3173 14.7061 20.4247 14.691 20.5275C14.6619 20.7239 14.7833 20.9134 14.9935 20.9587C15.1856 21 15.3901 21.0153 15.5859 21.0009C16.2634 20.951 16.8785 20.7132 17.4223 20.3103C18.1269 19.7883 18.3531 19.0761 18.1824 18.2319C18.1363 18.0029 18.0547 17.7802 17.9753 17.5595C17.9396 17.46 17.9372 17.3902 18.0022 17.2974C18.5655 16.4931 19.0467 15.6398 19.4943 14.7667C19.512 14.7324 19.5302 14.698 19.5612 14.6613C19.7063 15.416 19.9246 16.1433 20.3157 16.8033C20.1162 16.9956 19.9187 17.1699 19.7399 17.362C19.3464 17.785 19.0052 18.2444 18.8271 18.8046C18.7505 19.0461 18.6917 19.2916 18.7258 19.5495C18.7788 19.95 19.1069 20.2103 19.5009 20.1191C20.3439 19.924 21.0717 19.5267 21.6035 18.823C21.9613 18.3492 21.9939 17.8207 21.8441 17.267C21.803 17.1165 21.7542 16.9684 21.7017 16.7958C21.9097 16.7313 22.1125 16.6539 22.3223 16.606C23.4114 16.3575 24.4888 16.4008 25.5383 16.7941C26.1511 17.0238 26.6461 17.4081 26.9397 18.0128C27.2982 18.7519 27.1 19.4532 26.4033 19.9205C26.3383 19.964 26.2639 19.9983 26.2101 20.0528C26.1771 20.0863 26.1572 20.1532 26.1653 20.1994C26.1699 20.2263 26.241 20.26 26.2819 20.2595C26.5109 20.2578 26.6966 20.1377 26.8749 20.0143C27.3216 19.7052 27.6475 19.2894 27.7178 18.7418L27.7315 18.7007L27.7147 18.3442C27.7079 18.3236 27.7197 18.3033 27.7182 18.2877C27.6233 17.4904 27.1973 16.872 26.5779 16.3872C25.8603 15.8261 25.0131 15.5951 24.1171 15.5586C23.3869 15.5288 22.6692 15.6373 21.981 15.8874C21.7848 15.9585 21.5903 16.0427 21.393 16.1221C21.3666 16.0742 21.3381 16.0283 21.3147 15.9808C21.1122 15.566 20.8667 15.1697 20.8125 14.6941C20.774 14.3563 20.7267 14.019 20.807 13.685C20.8842 13.3637 20.9848 13.0478 21.0796 12.7308C21.1283 12.5676 21.094 12.4762 20.9383 12.4027C20.884 12.3771 20.8249 12.3548 20.7663 12.3463C20.3835 12.2907 20.0059 12.3224 19.6352 12.4303C19.5039 12.4685 19.4085 12.542 19.3794 12.6873C19.3628 12.7706 19.3289 12.8505 19.3053 12.9327C19.2084 13.2746 19.1397 13.6231 18.9831 13.9488C18.5906 14.7658 18.1426 15.552 17.6841 16.3325C17.6345 16.4168 17.5822 16.4994 17.5196 16.6016C17.3586 16.2647 17.1869 15.9624 17.1348 15.608C17.076 15.2073 17.0296 14.8072 17.1294 14.4095C17.2035 14.1129 17.3004 13.8217 17.3897 13.529C17.4319 13.3899 17.4124 13.3168 17.2864 13.2436C17.2228 13.2066 17.1508 13.1738 17.0791 13.1631C16.682 13.1042 16.2909 13.1351 15.9079 13.2589C15.7891 13.2974 15.7268 13.3742 15.6904 13.4967C15.5837 13.858 15.4927 14.2282 15.3428 14.5718C14.736 15.9631 14.1117 17.3471 13.4881 18.7309C13.3579 19.0199 13.2054 19.2988 13.0587 19.5801C13.0215 19.6514 12.9672 19.7142 12.9209 19.7811C12.8837 19.7372 12.8692 19.707 12.8694 19.6768C12.8705 19.4989 12.8493 19.3158 12.8832 19.1439C12.9858 18.6237 13.1039 18.1064 13.2284 17.591C13.3312 17.1653 13.4509 16.7436 13.5649 16.3207C13.6031 16.1792 13.6038 16.0468 13.5021 15.9278C13.3312 15.7286 12.9742 15.6848 12.7625 15.8384L12.6689 15.8913L12.687 15.7404C12.7316 15.4168 12.7406 15.0944 12.6518 14.7757C12.5411 14.3784 12.2576 14.1498 11.8455 14.1625C11.6534 14.1684 11.4517 14.2013 11.2739 14.2713C10.526 14.5644 9.95088 15.0835 9.46132 15.708C9.41691 15.7647 9.35829 15.8163 9.29572 15.8511C8.66288 16.2019 8.02807 16.5484 7.39348 16.8963L6.68713 17.2832C6.49769 17.1025 6.32554 16.9151 6.1302 16.756C5.53366 16.2695 4.92751 15.7951 4.32682 15.314C3.79438 14.8877 3.27857 14.4436 2.88395 13.879C2.59038 13.459 2.40116 12.9994 2.38301 12.4801C2.36004 11.8184 2.54773 11.2138 2.8846 10.6509C3.31554 9.93081 3.90332 9.35288 4.54951 8.82941C5.2331 8.27597 5.97248 7.80609 6.73876 7.37713C7.81085 6.77709 8.91357 6.24597 10.0959 5.89531C11.3082 5.53569 12.5383 5.32984 13.807 5.47334C14.3058 5.52978 14.7901 5.64397 15.2348 5.88788C15.5754 6.07447 15.8547 6.31881 15.9847 6.70075C16.1128 7.07656 16.1089 7.45741 16.0201 7.83913C15.8396 8.61219 15.4164 9.24941 14.8837 9.81881C14.01 10.7522 12.9443 11.3877 11.7444 11.8075C11.0521 12.0496 10.3398 12.2017 9.60832 12.2631C9.01135 12.3132 8.42685 12.2603 7.8616 12.0527C7.48732 11.9151 7.16138 11.7047 6.89932 11.3993C6.85251 11.3446 6.79257 11.2853 6.70529 11.3365C6.61976 11.3868 6.60466 11.4682 6.63332 11.5507C6.68123 11.6876 6.72541 11.8302 6.80001 11.9527C6.98748 12.2601 7.26091 12.483 7.56191 12.6742C8.14007 13.0419 8.78626 13.1655 9.45629 13.1941C10.473 13.2381 11.4651 13.0863 12.4431 12.8135C13.8394 12.4241 15.0534 11.7364 16.0271 10.6514C16.8378 9.74794 17.4168 8.72834 17.5408 7.49722C17.6014 6.89631 17.5369 6.30766 17.2556 5.75947C16.9504 5.16556 16.4653 4.72391 15.8851 4.41963C15.0403 3.97666 14.1286 3.71875 13.1875 3.71875H12.2447C11.105 3.71875 10.0032 4.04534 8.93216 4.43494C8.12148 4.73003 7.32654 5.07828 6.55479 5.46372C4.87413 6.3035 3.30898 7.31609 2.02338 8.70844C1.38288 9.40209 0.840602 10.1675 0.528664 11.0688C0.437445 11.3326 0.35082 11.6154 0.285633 11.8882L0.266602 12.2841ZM6.37541 19.766C6.30257 20.7414 5.86048 21.5322 5.13795 22.1727C4.73151 22.5328 4.26535 22.7892 3.72241 22.8793C3.52554 22.9119 3.32407 22.9198 3.1331 22.8382C2.86076 22.7218 2.79973 22.4801 2.79448 22.2226C2.78638 21.8122 2.9301 21.4412 3.1272 21.0882C3.38444 20.6279 3.76157 20.277 4.16429 19.9493C4.79866 19.4329 5.48685 18.9958 6.19166 18.5833L6.24482 18.5614C6.35376 18.9639 6.4056 19.3613 6.37541 19.766ZM11.8787 15.5269C11.8273 15.8384 11.763 16.1501 11.672 16.452C11.3574 17.4969 10.9534 18.5095 10.5166 19.5086C10.4359 19.6934 10.3184 19.8621 10.2162 20.0373C10.2005 20.0644 10.1771 20.0878 10.1543 20.1103C10.0279 20.2353 9.90801 20.2287 9.84413 20.0653C9.76976 19.8754 9.72404 19.6722 9.68466 19.4712C9.65819 19.3362 9.66454 19.1944 9.65623 19.0562C9.66476 18.0731 9.96466 17.1798 10.4735 16.3481C10.6833 16.0051 10.9116 15.6783 11.2605 15.4613C11.3677 15.3945 11.488 15.3409 11.6094 15.3068C11.7954 15.2545 11.9096 15.3405 11.8787 15.5269ZM15.6334 20.3105L16.9828 18.7348C17.039 19.32 16.0444 20.4881 15.6334 20.3105ZM19.9434 19.2502C19.848 19.3049 19.7441 19.3443 19.6463 19.3948C19.5568 19.4412 19.5273 19.3944 19.5247 19.3174C19.5229 19.2651 19.5306 19.2104 19.545 19.1597C19.7273 18.517 20.0626 17.9683 20.5616 17.5221L20.5966 17.5042C20.8339 18.1681 20.5596 18.8972 19.9434 19.2502Z" fill="#CB6699"/>
</svg>
