<svg width="20" height="20" viewBox="0 0 20 20" fill="none" xmlns="http://www.w3.org/2000/svg">
<g clip-path="url(#clip0_226_126)">
<path fill-rule="evenodd" clip-rule="evenodd" d="M0.386719 8.79888C0.386719 8.90653 0.418416 8.97758 0.436178 9.04663C0.551941 9.49575 0.800769 9.88117 1.09599 10.2327C1.51648 10.7338 2.03143 11.1371 2.55895 11.5164C3.01649 11.8453 3.48337 12.1669 3.94274 12.4933C4.0216 12.5494 4.09617 12.6138 4.18177 12.6826C4.10812 12.7224 4.04687 12.7575 3.98317 12.7898C3.37694 13.0973 2.79369 13.4419 2.25607 13.8595C1.93206 14.1112 1.61876 14.3788 1.3975 14.7283C1.04148 15.2906 0.915459 15.8896 1.18083 16.5292C1.25831 16.7161 1.37652 16.8774 1.54327 16.9967C1.59733 17.0353 1.65796 17.0736 1.7212 17.0886C1.88321 17.1267 2.04828 17.1517 2.21228 17.1819L2.6767 17.1816C3.19028 17.1358 3.65778 16.9598 4.08025 16.6683C4.74052 16.2126 5.18535 15.6016 5.3766 14.8175C5.51564 14.2475 5.52131 13.677 5.35746 13.1097C5.3423 13.057 5.32316 13.0054 5.30326 12.9544C5.28335 12.9034 5.25992 12.8538 5.23236 12.7902L6.28525 12.1848L6.30102 12.1983C6.28188 12.2609 6.26151 12.3234 6.24421 12.3866C6.11911 12.8435 6.03596 13.3084 6.06582 13.7826C6.09767 14.288 6.2387 14.761 6.53453 15.1831C6.77372 15.5246 7.34365 15.5373 7.59783 15.1946C7.68802 15.0729 7.77546 14.9456 7.84115 14.8098C8.0128 14.4553 8.17175 14.0946 8.33574 13.7362L8.36438 13.6707C8.35259 13.8404 8.33881 13.9894 8.33253 14.1385C8.32273 14.3714 8.33636 14.6029 8.41598 14.8245C8.48412 15.0141 8.60004 15.1557 8.81717 15.1807C8.9657 15.1977 9.08407 15.1297 9.19324 15.0435C9.36382 14.9089 9.5024 14.7426 9.6053 14.5536C9.89639 14.0191 10.1953 13.4877 10.4591 12.9397C10.7446 12.3469 10.9941 11.7369 11.2592 11.134L11.303 11.0272C11.3656 11.2732 11.4093 11.5142 11.4897 11.7424C11.5831 12.0072 11.6987 12.2656 11.8245 12.5169C11.8841 12.6356 11.8772 12.7126 11.7947 12.8121C11.4492 13.2286 11.1098 13.6502 10.77 14.0713C10.6948 14.1642 10.6199 14.2589 10.5573 14.3604C10.5195 14.4221 10.4943 14.4973 10.4838 14.5692C10.4634 14.7067 10.5484 14.8394 10.6956 14.871C10.83 14.9 10.9732 14.9107 11.1102 14.9006C11.5844 14.8657 12.015 14.6992 12.3957 14.4172C12.8889 14.0518 13.0472 13.5533 12.9278 12.9623C12.8955 12.802 12.8384 12.6461 12.7828 12.4916C12.7578 12.422 12.7562 12.3731 12.8016 12.3082C13.1959 11.7452 13.5328 11.1478 13.8461 10.5367C13.8585 10.5127 13.8712 10.4886 13.893 10.4629C13.9945 10.9912 14.1473 11.5003 14.4211 11.9623C14.2814 12.0969 14.1432 12.2189 14.0181 12.3534C13.7426 12.6495 13.5037 12.9711 13.3791 13.3632C13.3255 13.5323 13.2843 13.7041 13.3082 13.8846C13.3452 14.165 13.5749 14.3472 13.8507 14.2834C14.4408 14.1468 14.9503 13.8687 15.3225 13.3761C15.573 13.0444 15.5959 12.6745 15.491 12.2869C15.4622 12.1816 15.428 12.0779 15.3913 11.9571C15.5369 11.9119 15.6789 11.8577 15.8257 11.8242C16.5881 11.6502 17.3423 11.6805 18.0769 11.9559C18.5058 12.1166 18.8524 12.3857 19.0579 12.8089C19.3088 13.3263 19.1701 13.8172 18.6824 14.1443C18.6369 14.1748 18.5849 14.1988 18.5472 14.237C18.5241 14.2604 18.5101 14.3072 18.5158 14.3396C18.519 14.3584 18.5688 14.382 18.5974 14.3817C18.7577 14.3804 18.8877 14.2964 19.0125 14.21C19.3252 13.9936 19.5534 13.7026 19.6025 13.3193L19.6122 13.2905L19.6004 13.0409C19.5956 13.0265 19.6039 13.0123 19.6028 13.0014C19.5364 12.4433 19.2382 12.0104 18.8046 11.671C18.3023 11.2783 17.7093 11.1166 17.0821 11.091C16.571 11.0702 16.0686 11.1461 15.5868 11.3212C15.4495 11.3709 15.3133 11.4299 15.1752 11.4855C15.1567 11.4519 15.1368 11.4198 15.1204 11.3865C14.9786 11.0962 14.8068 10.8187 14.7688 10.4859C14.7419 10.2494 14.7088 10.0133 14.765 9.77949C14.8191 9.55455 14.8895 9.33344 14.9558 9.11156C14.9899 8.99733 14.9659 8.93332 14.8569 8.88187C14.8189 8.86396 14.7776 8.84834 14.7365 8.84237C14.4686 8.80347 14.2043 8.82568 13.9447 8.90117C13.8528 8.92796 13.7861 8.97941 13.7657 9.08109C13.7541 9.13943 13.7303 9.19532 13.7138 9.25289C13.646 9.49223 13.5979 9.73616 13.4882 9.96416C13.2135 10.5361 12.8999 11.0864 12.579 11.6328C12.5442 11.6917 12.5076 11.7496 12.4638 11.8211C12.3511 11.5853 12.2309 11.3737 12.1945 11.1256C12.1533 10.8451 12.1208 10.565 12.1907 10.2866C12.2426 10.079 12.3104 9.87519 12.3729 9.67031C12.4024 9.57293 12.3888 9.52178 12.3006 9.47048C12.2561 9.44461 12.2057 9.42164 12.1554 9.41413C11.8775 9.37294 11.6037 9.39453 11.3356 9.4812C11.2525 9.50815 11.2088 9.5619 11.1834 9.64765C11.1087 9.90061 11.045 10.1597 10.9401 10.4003C10.5153 11.3741 10.0783 12.343 9.64175 13.3116C9.55064 13.5139 9.44391 13.7091 9.34116 13.9061C9.31513 13.956 9.27716 13.9999 9.24469 14.0468C9.21866 14.016 9.20856 13.9949 9.20871 13.9737C9.20947 13.8492 9.19462 13.7211 9.21836 13.6007C9.29017 13.2366 9.37286 12.8745 9.45999 12.5137C9.53196 12.2157 9.61572 11.9205 9.69549 11.6245C9.72229 11.5254 9.72275 11.4328 9.65155 11.3495C9.53196 11.21 9.28206 11.1794 9.13383 11.2869L9.06829 11.3239L9.081 11.2183C9.11224 10.9918 9.11852 10.7661 9.05635 10.543C8.97887 10.2649 8.78042 10.1049 8.49193 10.1138C8.35749 10.1179 8.21631 10.1409 8.09181 10.1899C7.56828 10.3951 7.16572 10.7584 6.82302 11.1956C6.79194 11.2353 6.7509 11.2714 6.70711 11.2957C6.26412 11.5413 5.81975 11.7839 5.37553 12.0274L4.88109 12.2982C4.74848 12.1718 4.62797 12.0405 4.49123 11.9292C4.07366 11.5887 3.64935 11.2565 3.22887 10.9198C2.85617 10.6214 2.4951 10.3105 2.21886 9.91531C2.01337 9.62131 1.88091 9.2996 1.8682 8.93608C1.85213 8.47288 1.98351 8.04964 2.21932 7.65565C2.52098 7.15156 2.93242 6.747 3.38475 6.38058C3.86327 5.99317 4.38083 5.66426 4.91723 5.36398C5.66769 4.94396 6.4396 4.57217 7.26724 4.32671C8.11586 4.07497 8.97688 3.93088 9.865 4.03133C10.2141 4.07084 10.5531 4.15077 10.8644 4.3215C11.1029 4.45212 11.2984 4.62316 11.3894 4.89052C11.4791 5.15358 11.4763 5.42018 11.4142 5.68738C11.2878 6.22852 10.9915 6.67458 10.6187 7.07316C10.0071 7.72654 9.26108 8.17137 8.42119 8.46522C7.93655 8.63473 7.43797 8.74115 6.92592 8.78418C6.50804 8.81924 6.09889 8.78219 5.70322 8.63687C5.44122 8.54056 5.21307 8.39325 5.02962 8.17949C4.99685 8.14121 4.9549 8.09971 4.8938 8.13554C4.83393 8.17076 4.82336 8.22772 4.84342 8.28545C4.87696 8.38131 4.90789 8.48114 4.9601 8.56689C5.09133 8.78203 5.28274 8.93807 5.49344 9.0719C5.89815 9.3293 6.35048 9.41582 6.8195 9.43588C7.53122 9.46666 8.22565 9.36039 8.91027 9.16944C9.88767 8.89688 10.7375 8.41545 11.4191 7.65595C11.9865 7.02355 12.3919 6.30983 12.4787 5.44804C12.5211 5.02741 12.4759 4.61535 12.279 4.23162C12.0654 3.81588 11.7258 3.50673 11.3197 3.29373C10.7283 2.98365 10.0901 2.80312 9.43135 2.80312H8.77138C7.9736 2.80312 7.20231 3.03173 6.45261 3.30445C5.88513 3.51101 5.32868 3.75479 4.78845 4.02459C3.61199 4.61244 2.51638 5.32126 1.61647 6.2959C1.16812 6.78146 0.788519 7.31724 0.570163 7.94812C0.506309 8.13278 0.445672 8.33078 0.400041 8.52172L0.386719 8.79888ZM4.66289 14.0362C4.6119 14.719 4.30243 15.2725 3.79666 15.7209C3.51215 15.9729 3.18584 16.1524 2.80579 16.2155C2.66798 16.2383 2.52695 16.2438 2.39327 16.1867C2.20263 16.1052 2.15991 15.936 2.15623 15.7558C2.15057 15.4685 2.25117 15.2088 2.38913 14.9617C2.56921 14.6395 2.8332 14.3939 3.1151 14.1645C3.55916 13.803 4.04089 13.4971 4.53426 13.2083L4.57147 13.193C4.64773 13.4747 4.68402 13.7529 4.66289 14.0362ZM8.51521 11.0688C8.47922 11.2869 8.4342 11.5051 8.3705 11.7164C8.15031 12.4478 7.86749 13.1567 7.5617 13.856C7.50519 13.9854 7.42297 14.1034 7.35146 14.2261C7.34043 14.2451 7.32405 14.2615 7.30812 14.2772C7.21961 14.3647 7.1357 14.3601 7.09099 14.2457C7.03893 14.1128 7.00692 13.9705 6.97936 13.8298C6.96083 13.7353 6.96528 13.6361 6.95946 13.5393C6.96543 12.8512 7.17536 12.2258 7.53153 11.6436C7.67838 11.4035 7.83824 11.1748 8.08248 11.0229C8.15751 10.9762 8.24172 10.9386 8.32671 10.9148C8.45687 10.8782 8.5368 10.9383 8.51521 11.0688ZM11.1434 14.4173L12.0881 13.3144C12.1274 13.724 11.4312 14.5417 11.1434 14.4173ZM14.1605 13.6751C14.0937 13.7134 14.021 13.741 13.9525 13.7764C13.8899 13.8088 13.8692 13.7761 13.8674 13.7222C13.8662 13.6856 13.8715 13.6473 13.8816 13.6117C14.0092 13.1619 14.2439 12.7778 14.5932 12.4655L14.6177 12.4529C14.7838 12.9176 14.5918 13.428 14.1605 13.6751Z" fill="#CB6699"/>
</g>
<defs>
<clipPath id="clip0_226_126">
<rect width="19.6" height="19.6" fill="white" transform="translate(0.199951 0.199997)"/>
</clipPath>
</defs>
</svg>
