<svg width="70" height="70" viewBox="0 0 70 70" fill="none" xmlns="http://www.w3.org/2000/svg">
<path d="M66.8907 29.0669H64.7657C63.588 29.0669 62.544 28.2942 62.2171 27.1611C61.6227 25.1029 60.8053 23.1413 59.7912 21.3059C59.219 20.2732 59.4048 18.9839 60.2407 18.148L61.7453 16.6471C62.7856 15.6068 62.7856 13.9201 61.7453 12.8837L57.1163 8.25463C56.0798 7.21434 54.3931 7.21434 53.3528 8.25463L51.8519 9.75922C51.016 10.5951 49.7269 10.7809 48.694 10.2087C46.8587 9.19457 44.8972 8.37713 42.8389 7.78281C41.7057 7.45592 40.933 6.41193 40.933 5.23424V3.10922C40.933 1.64168 39.7404 0.449219 38.2693 0.449219H31.7306C30.2594 0.449219 29.0668 1.64182 29.0668 3.10922V5.23424C29.0668 6.41193 28.294 7.45592 27.1609 7.78281C25.1028 8.37727 23.1411 9.19457 21.3058 10.2087C20.273 10.7809 18.9838 10.5951 18.1479 9.75922L16.647 8.25463C15.6067 7.21434 13.9201 7.21434 12.8835 8.25463L8.25463 12.8837C7.21434 13.9201 7.21434 15.6068 8.25463 16.6471L9.75922 18.148C10.5951 18.9839 10.7809 20.273 10.2087 21.3059C9.19443 23.1413 8.37713 25.1029 7.78281 27.1611C7.45592 28.2942 6.41193 29.0669 5.23424 29.0669H3.10922C1.64182 29.0669 0.449219 30.2595 0.449219 31.7306V38.2693C0.449219 39.7405 1.64182 40.933 3.10922 40.933H5.23424C6.41193 40.933 7.45592 41.7057 7.78281 42.8389C8.37727 44.897 9.19457 46.8587 10.2087 48.694C10.7809 49.7268 10.5951 51.016 9.75922 51.8519L8.25463 53.3528C7.21434 54.3931 7.21434 56.0798 8.25463 57.1163L12.8837 61.7453C13.9203 62.7856 15.6068 62.7856 16.6471 61.7453L18.148 60.2407C18.9839 59.4048 20.273 59.219 21.3059 59.7912C23.1413 60.8053 25.1028 61.6228 27.1611 62.2171C28.2942 62.544 29.0669 63.588 29.0669 64.7657V66.8907C29.0669 68.3582 30.2595 69.5507 31.7307 69.5507H38.2695C39.7407 69.5507 40.9331 68.3581 40.9331 66.8907V64.7657C40.9331 63.588 41.7059 62.544 42.839 62.2171C44.8972 61.6227 46.8588 60.8053 48.6941 59.7912C49.7269 59.219 51.0161 59.4048 51.852 60.2407L53.353 61.7453C54.3932 62.7856 56.0798 62.7856 57.1164 61.7453L61.7454 57.1163C62.7857 56.0798 62.7857 54.3931 61.7454 53.3528L60.2408 51.8519C59.4049 51.016 59.2191 49.7269 59.7913 48.694C60.8056 46.8587 61.6229 44.897 62.2172 42.8389C62.5441 41.7057 63.5881 40.933 64.7658 40.933H66.8908C68.3584 40.933 69.5508 39.7404 69.5508 38.2693V31.7306C69.5508 30.2594 68.3582 29.0669 66.8907 29.0669ZM51.5175 50.2915C47.4049 54.7312 41.5275 57.51 35 57.51C28.4725 57.51 22.5951 54.7311 18.4824 50.2915C14.7635 46.2791 12.4899 40.9033 12.4899 35C12.4899 22.5691 22.5691 12.4899 35 12.4899C47.4308 12.4899 57.51 22.5691 57.51 35C57.51 40.9033 55.2364 46.2791 51.5175 50.2915Z" fill="#878787"/>
<path d="M51.5175 50.2916C47.4049 54.7313 41.5275 57.5101 35 57.5101C28.4725 57.5101 22.5951 54.7311 18.4824 50.2916C19.2515 48.4972 20.5852 46.9703 22.2941 45.93C25.9313 43.7306 29.7876 42.3671 29.8247 42.3523V42.3411H40.1752V42.3523C41.052 42.735 47.4717 45.109 49.712 47.5498C50.4698 48.3485 51.0829 49.2773 51.5175 50.2916Z" fill="#A1D51C"/>
<path d="M32.9018 54.9946C32.4961 54.9549 32.099 54.9013 31.6867 54.8301C31.4443 54.7884 31.2818 54.558 31.3236 54.316C31.3653 54.0736 31.6005 53.9104 31.8377 53.9529C32.2283 54.02 32.6047 54.0708 32.988 54.1084C33.2329 54.1324 33.412 54.3501 33.3881 54.5947C33.3644 54.836 33.1503 55.0182 32.9018 54.9946ZM29.3761 54.2988C27.6426 53.7957 25.9446 53.0275 24.4687 52.1164C24.2592 51.9873 24.1943 51.7129 24.3236 51.5039C24.453 51.2948 24.7282 51.2295 24.9361 51.3588C26.3439 52.2277 27.9644 52.961 29.6243 53.4438C29.8606 53.5123 29.9962 53.7593 29.9277 53.9954C29.8585 54.2344 29.6082 54.3672 29.3761 54.2988Z" fill="white"/>
<path d="M40.172 38.0056V42.3448C40.172 45.1721 37.857 47.4693 35.0011 47.4693C32.1451 47.4693 29.8301 45.1721 29.8301 42.3448V38.0056H40.172Z" fill="#F9E109"/>
<path d="M26.4691 34.9609C27.5213 34.9609 28.3743 33.9292 28.3743 32.6565C28.3743 31.3838 27.5213 30.3521 26.4691 30.3521C25.4169 30.3521 24.564 31.3838 24.564 32.6565C24.564 33.9292 25.4169 34.9609 26.4691 34.9609Z" fill="#F9E109"/>
<path d="M43.5329 34.9609C44.5851 34.9609 45.438 33.9292 45.438 32.6565C45.438 31.3838 44.5851 30.3521 43.5329 30.3521C42.4807 30.3521 41.6277 31.3838 41.6277 32.6565C41.6277 33.9292 42.4807 34.9609 43.5329 34.9609Z" fill="#F9E109"/>
<path d="M43.216 32.0025V34.0047C43.216 38.4464 39.8126 42.2607 35.3994 42.458C30.6826 42.6836 26.7849 38.9188 26.7849 34.2373V31.0717C26.9685 31.0717 27.1591 30.9377 27.152 30.705C27.0391 26.6722 29.9765 23.8168 29.9765 23.8168C30.9227 27.1446 36.8399 27.0318 36.8399 27.0318C38.5769 27.067 39.9256 26.7638 40.9706 26.2633C42.5876 27.8284 42.8418 30.148 42.8064 31.6568C42.7995 31.9037 43.0184 32.0377 43.216 32.0025Z" fill="#F9E109"/>
<path d="M42.8061 31.6601C42.8519 29.7563 42.4396 26.5422 39.3816 25.213L43.9219 21.6173C43.9219 21.6173 46.0745 26.797 43.47 31.8221C43.2984 32.1531 42.7971 32.0327 42.8061 31.6601Z" fill="#F8664F"/>
<path d="M36.8398 27.0319C36.8398 27.0319 30.9226 27.1447 29.9764 23.817C29.9764 23.817 27.0391 26.6752 27.1507 30.7055C27.1615 31.0934 26.6322 31.2151 26.4844 30.8563C25.0403 27.3496 23.4658 20.8381 30.4989 18.8464C30.4989 18.8464 34.1353 13.6856 38.6192 18.1203C39.6835 19.1763 40.7153 20.8823 44.1834 19.9433C44.4126 19.8812 44.6362 20.0597 44.6258 20.297C44.555 21.9358 43.7847 27.1627 36.8398 27.0319Z" fill="#F8664F"/>
<path d="M65.2835 54.1663C65.0394 54.1958 64.8655 54.4177 64.895 54.662C64.9391 55.0227 64.9404 55.4864 64.8856 55.8707C64.8473 56.1384 65.0548 56.3787 65.327 56.3787C65.5451 56.3787 65.7358 56.2183 65.767 55.996C65.8341 55.5247 65.8312 54.9837 65.7791 54.5548C65.7496 54.3102 65.5257 54.1388 65.2835 54.1663ZM64.7673 57.7814C64.5593 57.6516 64.2841 57.7154 64.154 57.9244C63.6346 58.7595 63.4147 58.7923 59.081 63.1807C58.9071 63.3546 58.9071 63.6364 59.081 63.8103C59.2549 63.9842 59.5367 63.9842 59.7106 63.8103C63.9977 59.4604 64.3035 59.3688 64.9102 58.3947C65.04 58.1859 64.9763 57.9115 64.7673 57.7814ZM7.5814 10.1568L8.5182 9.21999C8.69211 9.04609 8.69211 8.76431 8.5182 8.5904C8.3443 8.4165 8.06252 8.4165 7.88861 8.5904L6.95182 9.5272C6.77791 9.70111 6.77791 9.98288 6.95182 10.1568C7.12586 10.3307 7.4075 10.3307 7.5814 10.1568ZM10.3031 7.43554C10.813 7.04781 12.0327 5.07263 14.7649 5.07263C15.2926 5.07263 15.8116 5.15302 16.3069 5.3112C16.5421 5.38736 16.7915 5.25665 16.8667 5.02286C16.9414 4.78839 16.8124 4.53792 16.5783 4.46314C15.9949 4.27665 15.3849 4.18204 14.765 4.18204C11.6113 4.18204 10.1662 6.43654 9.67361 6.80581C9.4997 6.97972 9.4997 7.26191 9.67361 7.4354C9.84738 7.60958 10.129 7.60958 10.3031 7.43554ZM66.8896 28.6226H64.7656C63.7854 28.6226 62.913 27.9707 62.6442 27.0374C62.049 24.9712 61.2201 22.9705 60.1801 21.09C59.7084 20.2375 59.8632 19.1578 60.5565 18.4645L62.0598 16.9611C63.2708 15.75 63.2708 13.779 62.0598 12.5678L57.4325 7.94044C56.2213 6.72925 54.2503 6.72925 53.0391 7.94044L51.5358 9.4438C50.8425 10.1371 49.7632 10.2921 48.9102 9.82019C47.0298 8.78017 45.0289 7.95124 42.9627 7.35611C42.0295 7.08718 41.3776 6.21478 41.3776 5.23464V3.11044C41.3776 1.39736 39.9841 0.00378418 38.2713 0.00378418H31.7291C30.0163 0.00378418 28.6228 1.39722 28.6228 3.11044V5.23437C28.6228 6.21464 27.971 7.08704 27.0377 7.35583C24.9715 7.95097 22.9707 8.77989 21.0903 9.81991C20.2381 10.292 19.1581 10.1368 18.4648 9.44353L16.9614 7.94017C15.7502 6.72898 13.7793 6.72898 12.5681 7.94017L7.94043 12.5677C6.72951 13.7789 6.72951 15.7498 7.94043 16.961L9.44379 18.4644C10.1371 19.1577 10.2919 20.2373 9.82017 21.0899C8.78016 22.9703 7.95123 24.9712 7.35609 27.0373C7.08717 27.9706 6.21476 28.6224 5.23463 28.6224H3.11057C1.39748 28.6224 0.00390625 30.0159 0.00390625 31.7287V38.2709C0.00390625 39.9838 1.39734 41.3772 3.11057 41.3772H5.23449C6.21476 41.3772 7.08717 42.0291 7.35596 42.9623C7.95109 45.0285 8.78002 47.0293 9.82004 48.9098C10.2917 49.7624 10.137 50.8421 9.44365 51.5354L7.94029 53.0388C6.72937 54.2499 6.72937 56.2209 7.94029 57.4321L12.5677 62.0595C13.7789 63.2706 15.7498 63.2706 16.961 62.0595L18.4643 60.5561C19.1577 59.8632 20.2373 59.7073 21.0899 60.1797C22.9703 61.2197 24.9712 62.0487 27.0373 62.6438C27.9705 62.9127 28.6224 63.7851 28.6224 64.7653V66.8892C28.6224 68.6023 30.0159 69.9958 31.7287 69.9958H38.2709C39.9837 69.9958 41.3772 68.6024 41.3772 66.8892V64.7653C41.3772 63.785 42.0291 62.9126 42.9623 62.6438C45.0285 62.0487 47.0293 61.2197 48.9098 60.1797C49.762 59.7076 50.8421 59.8628 51.5354 60.5561L53.0387 62.0595C54.2499 63.2706 56.2209 63.2706 57.4321 62.0595L62.0594 57.4321C63.2704 56.2209 63.2704 54.2499 62.0594 53.0388L60.5561 51.5354C59.8628 50.8421 59.708 49.7624 60.1797 48.9098C61.2197 47.0294 62.0486 45.0285 62.6438 42.9623C62.9127 42.0291 63.7851 41.3772 64.7652 41.3772H66.8892C68.6022 41.3772 69.9958 39.9838 69.9958 38.2709V31.7287C69.9961 30.016 68.6027 28.6226 66.8896 28.6226ZM69.1056 38.2711C69.1056 39.4927 68.1116 40.4869 66.8896 40.4869H64.7656C63.3907 40.4869 62.1665 41.4034 61.7885 42.7162C61.2118 44.718 60.4086 46.657 59.4008 48.4786C58.7379 49.6766 58.9541 51.1925 59.9268 52.1651L61.4301 53.6685C62.2938 54.5325 62.2938 55.9386 61.4301 56.8026L56.8027 61.43C55.9387 62.2941 54.5327 62.2934 53.6686 61.43L52.1652 59.9266C51.1926 58.9538 49.6775 58.7377 48.4788 59.4007C46.6571 60.4084 44.7182 61.2115 42.7163 61.7883C41.4036 62.1665 40.487 63.3905 40.487 64.7655V66.8895C40.487 68.1114 39.4929 69.1055 38.2712 69.1055H31.7289C30.5074 69.1055 29.5131 68.1114 29.5131 66.8895V64.7655C29.5131 63.3905 28.5966 62.1664 27.2838 61.7883C25.282 61.2117 23.343 60.4084 21.5214 59.4007C20.3204 58.7368 18.8048 58.9561 17.8349 59.9266L16.3315 61.43C15.4679 62.2941 14.0619 62.2934 13.1974 61.43L8.57002 56.8026C7.70637 55.9386 7.70637 54.5325 8.57002 53.6685L10.0734 52.1651C11.046 51.1925 11.2623 49.6766 10.5993 48.4786C9.59158 46.657 8.78849 44.718 8.21168 42.7162C7.83351 41.4034 6.60947 40.4869 5.23449 40.4869H3.11057C1.88857 40.4869 0.894492 39.4928 0.894492 38.2711V31.7288C0.894492 30.5072 1.88857 29.513 3.11057 29.513H5.23449C6.60947 29.513 7.83365 28.5965 8.21168 27.2837C8.78836 25.2818 9.59158 23.3429 10.5993 21.5213C11.2623 20.3233 11.046 18.8074 10.0734 17.8348L8.57002 16.3314C7.70637 15.4674 7.70637 14.0613 8.57002 13.1973L13.1974 8.5699C14.0611 7.70624 15.4671 7.70624 16.3315 8.5699L17.8349 10.0733C18.8075 11.0459 20.3224 11.2619 21.5214 10.5992C23.343 9.59146 25.282 8.78837 27.2838 8.21156C28.5966 7.83339 29.5131 6.60935 29.5131 5.23437V3.11044C29.5131 1.88845 30.5072 0.89437 31.7289 0.89437H38.2712C39.4928 0.89437 40.487 1.88845 40.487 3.11044V5.23437C40.487 6.60935 41.4036 7.83353 42.7163 8.21156C44.7182 8.78824 46.6571 9.59146 48.4788 10.5992C49.6771 11.2615 51.193 11.0461 52.1652 10.0733L53.6686 8.5699C54.5327 7.70624 55.9387 7.70624 56.8027 8.5699L61.4301 13.1973C62.2938 14.0613 62.2938 15.4674 61.4301 16.3314L59.9268 17.8348C58.9541 18.8074 58.7379 20.3233 59.4008 21.5213C60.4086 23.3429 61.2116 25.2818 61.7885 27.2837C62.1666 28.5965 63.3907 29.513 64.7656 29.513H66.8896C68.1116 29.513 69.1056 30.5071 69.1056 31.7288V38.2711Z" fill="black"/>
<path d="M30.3402 31.9418C30.5538 32.0632 30.8255 31.9891 30.9475 31.7755C31.1953 31.3416 31.819 31.3418 32.0666 31.7755C32.1888 31.9899 32.4613 32.063 32.6739 31.9418C32.8874 31.8201 32.962 31.548 32.8401 31.3345C32.251 30.3015 30.7632 30.301 30.1738 31.3345C30.0523 31.548 30.1267 31.8201 30.3402 31.9418ZM37.3267 31.9418C37.5393 32.063 37.8118 31.9899 37.934 31.7755C38.1823 31.3406 38.8064 31.3428 39.0531 31.7755C39.1745 31.9891 39.4465 32.0632 39.6604 31.9418C39.8739 31.8201 39.9484 31.548 39.8266 31.3345C39.2365 30.299 37.7474 30.3039 37.1603 31.3345C37.0388 31.5483 37.1132 31.8201 37.3267 31.9418ZM32.0325 36.7939C31.8506 36.9595 31.837 37.2408 32.0026 37.4228C33.6085 39.1883 36.392 39.1885 37.9981 37.4228C38.1637 37.2408 38.1502 36.9595 37.9682 36.7939C37.7866 36.6286 37.5055 36.6416 37.3393 36.8239C36.0858 38.2012 33.9146 38.201 32.6614 36.8239C32.4955 36.6412 32.2138 36.6283 32.0325 36.7939Z" fill="black"/>
<path d="M35 12.0447C22.3422 12.0447 12.0447 22.3423 12.0447 35C12.0447 47.6545 22.3038 57.9554 35 57.9554C47.6681 57.9554 57.9554 47.6828 57.9554 35C57.9554 22.3422 47.6579 12.0447 35 12.0447ZM35 57.0649C28.8111 57.0649 23.046 54.4384 19.0127 50.1976C19.7631 48.5955 20.9726 47.2558 22.5246 46.3111C25.2829 44.6431 28.1478 43.4677 29.4238 42.9781C29.7422 45.7519 32.1205 47.9146 35.0011 47.9146C37.8748 47.9146 40.248 45.7616 40.5752 42.9971C42.3059 43.6947 47.4907 45.7878 49.3887 47.8562C50.5195 49.0478 50.6934 49.7864 51.0216 50.1627C46.8661 54.55 41.043 57.0649 35 57.0649ZM43.2537 31.2552C43.2358 29.8553 42.9426 27.9038 41.6973 26.3991C42.8301 25.7401 43.5853 24.8517 44.0875 23.9409C44.4165 25.7682 44.5415 28.5213 43.2537 31.2552ZM44.9927 32.6565C44.9927 33.6318 44.3978 34.4253 43.6471 34.5011C43.6557 34.3367 43.6612 34.1715 43.6612 34.0049V32.2704C43.8446 32.1176 43.9533 31.9236 44.3003 31.0772C44.7151 31.4054 44.9927 31.9902 44.9927 32.6565ZM36.8482 26.5866C34.5253 26.5866 31.0452 25.9472 30.4044 23.6953C30.3128 23.3721 29.9071 23.2626 29.6655 23.498C29.5452 23.6152 26.8275 26.3051 26.7064 30.2097C25.8288 27.9202 25.1355 24.8748 26.2928 22.4923C27.0368 20.9597 28.4929 19.8772 30.6204 19.2748C30.7184 19.2469 30.804 19.186 30.8628 19.1026C30.8777 19.0815 32.3864 16.9742 34.5632 16.7808C36.0112 16.6517 37.2813 17.4235 38.3058 18.4366C39.5041 19.6245 40.639 21.3143 44.1747 20.4061C44.0566 22.4059 43.0704 26.7179 36.8482 26.5866ZM26.0726 31.0259C26.1308 31.1673 26.2256 31.2798 26.3393 31.3633V34.2376C26.3393 34.3253 26.3433 34.4126 26.3459 34.5001C25.5994 34.4188 25.0092 33.6281 25.0092 32.6567C25.0092 31.8314 25.4372 31.1418 26.0229 30.9012C26.0395 30.9422 26.0559 30.9854 26.0726 31.0259ZM27.2299 31.3897C27.4614 31.2435 27.6038 30.9857 27.5959 30.6933C27.5173 27.8656 29.0474 25.6133 29.8347 24.6473C31.3767 27.5145 36.5011 27.485 36.8396 27.4769C38.193 27.5037 39.5995 27.3334 40.8609 26.8109C42.1879 28.2788 42.3927 30.3476 42.3614 31.6489C42.354 31.9568 42.5137 32.2215 42.7709 32.3599V34.0044C42.7709 38.3097 39.5245 41.8275 35.3785 42.0129C30.921 42.2327 27.2302 38.6702 27.2302 34.2371V31.3897H27.2299ZM35.4192 42.9031C37.009 42.8318 38.4804 42.3226 39.7265 41.4903V42.3448C39.7265 44.9249 37.6067 47.024 35.001 47.024C32.3953 47.024 30.2752 44.9249 30.2752 42.3448V41.5094C31.7796 42.4956 33.5467 42.9896 35.4192 42.9031ZM51.6215 49.5021C51.2007 48.6809 50.6768 47.9201 50.0398 47.2487C48.0642 45.0959 43.2887 43.1359 40.617 42.0538V40.8054C42.1575 39.4567 43.2272 37.559 43.5543 35.4049C44.8402 35.3912 45.883 34.1641 45.883 32.6564C45.883 31.5961 45.3663 30.6769 44.6131 30.2184C45.6414 27.0259 45.1124 24.049 44.6866 22.5187C44.966 21.6173 45.0494 20.8071 45.0707 20.3155C45.0815 20.063 44.9698 19.8181 44.7727 19.6602C44.5747 19.5019 44.3107 19.4476 44.067 19.5134C40.9723 20.3506 40.165 19.0232 38.9321 17.8037C37.5136 16.4005 36.0182 15.7577 34.4842 15.8937C32.2155 16.0951 30.6321 17.9442 30.2318 18.4601C27.9284 19.1435 26.3338 20.3687 25.4918 22.1034C24.2779 24.6027 24.8495 27.6612 25.7026 30.0607C24.7824 30.4332 24.1189 31.4544 24.1189 32.6563C24.1189 34.1525 25.146 35.3711 26.4185 35.4031C26.6855 37.4193 27.6429 39.3377 29.3849 40.831V42.04C28.3053 42.4437 25.1199 43.7008 22.063 45.5495C20.4657 46.5216 19.2049 47.8791 18.3734 49.4958C14.8644 45.4783 12.9351 40.3586 12.9351 35C12.9351 22.8334 22.8334 12.9351 35 12.9351C47.1666 12.9351 57.0649 22.8334 57.0649 35C57.0649 40.3612 55.1337 45.4834 51.6215 49.5021Z" fill="black"/>
</svg>
