<svg width="24" height="24" viewBox="0 0 24 24" fill="none" xmlns="http://www.w3.org/2000/svg">
<path d="M0 12V24H24V0H0V12Z" fill="#1677C7"/>
<path d="M12 0H0V24H12V0Z" fill="#1368AD"/>
<path d="M14.563 19.626C14.671 19.564 15.074 19.332 15.455 19.111L16.145 18.711L16.29 18.925C16.493 19.233 16.933 19.656 17.2 19.798C17.966 20.202 19.017 20.146 19.535 19.68C19.728 19.516 19.849 19.274 19.849 19.005L19.848 18.958V18.96C19.848 18.682 19.813 18.56 19.668 18.351C19.482 18.084 19.101 17.861 18.019 17.39C16.782 16.857 16.248 16.527 15.761 16.001C15.467 15.667 15.24 15.264 15.108 14.823L15.102 14.801C15.011 14.462 14.988 13.611 15.06 13.27C15.315 12.074 16.218 11.241 17.521 10.993C17.944 10.913 18.927 10.942 19.342 11.046V11.047C19.952 11.2 20.416 11.47 20.843 11.912C21.064 12.147 21.392 12.578 21.418 12.681C21.426 12.712 20.382 13.411 19.75 13.804C19.727 13.818 19.635 13.72 19.533 13.568C19.223 13.118 18.9 12.924 18.405 12.889C17.677 12.839 17.209 13.22 17.212 13.857L17.211 13.894C17.211 14.044 17.249 14.187 17.316 14.31L17.314 14.306C17.475 14.637 17.772 14.836 18.705 15.239C20.424 15.978 21.159 16.465 21.616 17.159C22.126 17.932 22.241 19.167 21.894 20.085C21.514 21.083 20.569 21.761 19.239 21.984C18.828 22.057 17.852 22.046 17.411 21.967C16.447 21.795 15.533 21.318 14.969 20.693C14.748 20.451 14.317 19.814 14.344 19.769C14.354 19.751 14.453 19.689 14.563 19.626ZM5.25903 12.064C5.25903 11.531 5.26903 11.085 5.28503 11.075C5.29603 11.058 7.19803 11.05 9.50203 11.054L13.697 11.065L13.708 12.045L13.716 13.028H10.591V21.904H8.38003V13.028H5.25903V12.064Z" fill="white"/>
<path d="M21.007 16.488H16.306C16.698 16.776 17.207 17.038 18.019 17.388C19.102 17.859 19.482 18.083 19.668 18.349C19.813 18.558 19.848 18.68 19.848 18.958V18.956L19.849 19.003C19.849 19.273 19.728 19.514 19.535 19.678C19.25 19.934 18.804 20.066 18.333 20.066C17.947 20.066 17.545 19.978 17.2 19.796C16.933 19.655 16.492 19.232 16.29 18.923L16.145 18.709L15.455 19.109C15.074 19.33 14.671 19.562 14.563 19.624C14.453 19.687 14.354 19.749 14.343 19.765C14.316 19.81 14.747 20.447 14.968 20.689C15.532 21.314 16.446 21.791 17.41 21.963C17.651 22.006 18.051 22.029 18.431 22.029C18.748 22.029 19.051 22.013 19.238 21.98C20.568 21.757 21.513 21.079 21.893 20.081C22.24 19.163 22.125 17.928 21.615 17.155C21.456 16.916 21.263 16.699 21.007 16.488Z" fill="#DEDEDE"/>
<path d="M10.5909 16.488H8.37988V21.905H10.5909V16.488Z" fill="#DEDEDE"/>
</svg>
